<svg width="512" height="512" viewBox="0 0 512 512" fill="none" xmlns="http://www.w3.org/2000/svg">
<g clip-path="url(#clip0_1527_85)">
<path d="M503.114 82.2605L504.531 80.8438C514.49 70.8642 514.49 54.7041 504.531 44.7246L468.415 8.60138C458.429 -1.34926 442.276 -1.34726 432.292 8.60537L430.874 10.024L424.852 4.00318C423.25 2.4303 421.093 1.55349 418.848 1.56355C416.604 1.5736 414.454 2.46971 412.867 4.05687C411.28 5.64402 410.383 7.79378 410.373 10.0383C410.363 12.2829 411.24 14.4406 412.813 16.0419L418.835 22.0628L406.794 34.1055L400.774 28.0846C399.173 26.5118 397.015 25.635 394.771 25.645C392.526 25.6551 390.376 26.5512 388.789 28.1383C387.202 29.7255 386.306 31.8752 386.296 34.1198C386.286 36.3644 387.163 38.5221 388.736 40.1234L394.756 46.1452L394.754 46.1472C390.563 50.3687 387.555 55.6171 386.031 61.3669C384.507 67.1167 384.52 73.1661 386.069 78.9093L269.733 195.244C262.924 188.015 255.321 181.577 247.068 176.053C220.339 158.627 180.948 157.75 161.302 186.362C155.107 196.567 150.828 207.817 148.674 219.559C145.265 233.398 142.322 245.349 133.252 251.833C123.908 256.735 113.38 258.927 102.857 258.16C98.7743 258.31 94.7008 258.46 90.7182 258.822C73.3186 260.424 56.6372 266.535 42.319 276.55C28.0008 286.565 16.5404 300.139 9.06787 315.934C2.88908 331.033 -0.191832 347.221 0.00817285 363.535C0.208178 379.848 3.68501 395.955 10.2321 410.899C26.0252 449.821 56.2172 481.155 94.5262 498.382C112.196 506.434 131.36 510.686 150.777 510.86C157.642 510.874 164.493 510.261 171.246 509.028C184.293 506.88 196.745 502.021 207.799 494.764C218.852 487.508 228.262 478.015 235.42 466.897C245.387 449.672 250.574 430.098 250.443 410.198C250.543 407.425 250.56 404.569 250.568 401.685C250.457 396.076 250.73 390.466 251.383 384.895C251.85 379.405 253.761 374.137 256.92 369.623C263.846 360.278 277.18 357.58 291.297 354.725C296.842 353.602 302.579 352.442 308.066 350.838C322.183 346.731 337.555 336.38 338.345 319.636C339.176 302.198 323.288 288.642 307.193 284.269C304.466 283.521 301.606 282.897 298.721 282.27C293.533 281.39 288.489 279.81 283.726 277.574L293.828 267.472L293.841 267.463L293.849 267.451L434.207 127.092C439.949 128.726 446.026 128.779 451.797 127.247C457.567 125.714 462.817 122.652 466.992 118.384L473.011 124.403C474.609 125.99 476.771 126.879 479.024 126.875C481.276 126.871 483.435 125.975 485.028 124.382C486.621 122.789 487.517 120.63 487.521 118.378C487.525 116.125 486.636 113.963 485.048 112.365L479.03 106.345L491.072 94.3022L497.094 100.322C498.695 101.895 500.853 102.772 503.098 102.762C505.342 102.752 507.492 101.856 509.079 100.268C510.666 98.6812 511.562 96.5314 511.573 94.2869C511.583 92.0423 510.706 89.8846 509.133 88.2833L503.114 82.2605ZM295.105 298.903C297.691 299.465 300.251 300.017 302.712 300.691C312.165 303.26 321.726 310.746 321.336 318.823C320.97 326.622 311.401 332.134 303.303 334.486C298.497 335.891 293.359 336.931 287.922 338.032C272.051 341.241 254.06 344.883 243.252 359.465C238.337 366.279 235.322 374.277 234.515 382.639C233.74 388.936 233.415 395.28 233.542 401.624C233.533 404.321 233.525 406.99 233.425 409.688C233.617 426.6 229.304 443.259 220.929 457.953C215.021 467.041 207.275 474.791 198.19 480.703C189.104 486.614 178.881 490.557 168.178 492.277C145.5 495.876 122.263 492.586 101.476 482.832C67.3053 467.247 40.3352 439.257 26.0281 404.532C20.3409 391.723 17.2825 377.903 17.0341 363.891C16.7856 349.878 19.3521 335.959 24.5814 322.956C30.7879 309.888 40.2936 298.664 52.1611 290.39C64.0285 282.117 77.8476 277.079 92.2556 275.775C95.922 275.443 99.6961 275.309 103.479 275.173C117.342 275.986 131.137 272.69 143.136 265.699C157.353 255.531 161.343 239.315 165.209 223.631C166.939 213.904 170.364 204.558 175.328 196.016C189.103 175.967 217.903 177.368 237.781 190.326C245.035 195.211 251.713 200.9 257.689 207.285L197.516 267.458C195.92 269.053 195.023 271.218 195.022 273.475C195.022 275.732 195.918 277.897 197.513 279.493L197.516 279.496L233.64 315.616C235.235 317.212 237.4 318.109 239.657 318.11C241.914 318.11 244.079 317.214 245.675 315.619L245.678 315.616L271.375 289.919C278.552 294.575 286.644 297.639 295.105 298.903ZM239.659 249.396L251.698 237.356L275.783 261.438L263.741 273.48L239.659 249.396ZM251.701 285.519L239.661 297.56L215.575 273.48L227.619 261.435L251.701 285.519ZM287.819 249.401L263.735 225.319L275.776 213.278L299.86 237.359L287.819 249.401ZM311.899 225.323L287.814 201.24L298.436 190.618L322.519 214.703L311.899 225.323ZM334.558 202.664L310.475 178.579L322.517 166.538L346.601 190.62L334.558 202.664ZM358.639 178.582L334.555 154.5L346.598 142.456L370.681 166.541L358.639 178.582ZM382.72 154.502L358.637 130.417L370.676 118.379L394.758 142.463L382.72 154.502ZM406.796 130.425L382.714 106.341L394.754 94.3002L418.84 118.382L406.796 130.425ZM492.492 68.805L491.073 70.2237L485.051 64.2038C483.45 62.631 481.292 61.7542 479.048 61.7642C476.803 61.7743 474.653 62.6704 473.066 64.2575C471.479 65.8447 470.583 67.9945 470.573 70.239C470.563 72.4836 471.44 74.6413 473.013 76.2426L479.035 82.2624L466.995 94.3022L460.974 88.2803C459.373 86.7074 457.215 85.8306 454.97 85.8407C452.726 85.8507 450.576 86.7469 448.989 88.334C447.402 89.9212 446.506 92.0709 446.496 94.3155C446.485 96.56 447.362 98.7177 448.935 100.319L454.956 106.341L454.954 106.343C448.215 112.77 437.617 112.77 430.878 106.343L418.835 94.3022L406.789 82.2585C400.158 75.6041 400.159 64.8384 406.792 58.185L406.793 58.184L412.812 64.2038C414.413 65.7767 416.571 66.6535 418.816 66.6435C421.06 66.6334 423.21 65.7373 424.797 64.1502C426.384 62.563 427.28 60.4132 427.29 58.1687C427.3 55.9241 426.424 53.7664 424.851 52.1651L418.832 46.1452L430.876 34.1015L436.897 40.1224C438.499 41.6953 440.656 42.5721 442.901 42.562C445.146 42.552 447.295 41.6558 448.882 40.0687C450.47 38.4815 451.366 36.3318 451.376 34.0872C451.386 31.8427 450.509 29.685 448.936 28.0836L442.914 22.0628L444.33 20.6471C445.929 19.0531 448.095 18.1578 450.353 18.157C452.61 18.1563 454.777 19.0502 456.377 20.6431L492.492 56.7623C494.085 58.3612 494.98 60.5264 494.98 62.7837C494.98 65.041 494.085 67.2062 492.492 68.805Z" fill="white"/>
<path d="M198.732 351.736L162.617 315.617C152.656 305.629 136.484 305.607 126.495 315.567C116.507 325.528 116.485 341.7 126.446 351.689L126.493 351.736L162.617 387.856V387.86C172.592 397.832 188.763 397.831 198.736 387.856C208.709 377.881 208.707 361.71 198.732 351.736ZM186.693 375.814C185.097 377.41 182.931 378.307 180.674 378.307C178.416 378.307 176.251 377.41 174.654 375.814L138.539 339.703C136.943 338.105 136.045 335.939 136.044 333.681C136.042 331.422 136.937 329.256 138.531 327.656C140.131 326.063 142.297 325.168 144.554 325.168C146.812 325.168 148.978 326.063 150.578 327.656L186.693 363.775C188.289 365.372 189.186 367.537 189.186 369.795C189.186 372.052 188.289 374.217 186.693 375.814ZM138.532 411.933L102.417 375.818C100.816 374.245 98.6579 373.368 96.4134 373.378C94.1688 373.388 92.019 374.284 90.4319 375.872C88.8447 377.459 87.9486 379.609 87.9386 381.853C87.9285 384.098 88.8053 386.255 90.3782 387.857L126.493 423.972C128.095 425.545 130.252 426.422 132.497 426.411C134.742 426.401 136.891 425.505 138.478 423.918C140.066 422.331 140.962 420.181 140.972 417.937C140.982 415.692 140.105 413.534 138.532 411.933ZM198.817 424.052L198.724 423.959C197.094 422.44 194.949 421.596 192.721 421.596C190.494 421.596 188.349 422.44 186.719 423.959C185.513 425.146 184.686 426.664 184.343 428.322C184 429.979 184.156 431.7 184.792 433.269C185.427 434.837 186.513 436.182 187.913 437.133C189.313 438.084 190.964 438.599 192.656 438.612C194.348 438.625 196.006 438.135 197.42 437.206C198.835 436.277 199.941 434.949 200.601 433.39C201.26 431.832 201.443 430.112 201.125 428.45C200.808 426.788 200.004 425.257 198.817 424.052ZM162.626 436.047C162.221 435.653 161.793 435.283 161.346 434.938C160.839 434.685 160.323 434.431 159.816 434.173C159.319 433.967 158.808 433.796 158.287 433.661C156.911 433.416 155.497 433.504 154.163 433.92C152.829 434.335 151.615 435.065 150.622 436.047C149.435 437.23 148.626 438.737 148.296 440.38C147.966 442.022 148.131 443.725 148.769 445.274C149.407 446.822 150.49 448.147 151.881 449.081C153.271 450.014 154.908 450.514 156.583 450.518C157.156 450.545 157.73 450.488 158.287 450.347C158.807 450.245 159.318 450.103 159.816 449.923C160.344 449.673 160.855 449.388 161.346 449.071C161.813 448.785 162.243 448.441 162.626 448.048C163.418 447.255 164.044 446.312 164.468 445.274C164.892 444.236 165.105 443.125 165.095 442.004C165.104 440.896 164.891 439.798 164.466 438.774C164.042 437.751 163.416 436.824 162.626 436.047Z" fill="white"/>
</g>
<defs>
<clipPath id="clip0_1527_85">
<rect width="512" height="512" fill="white"/>
</clipPath>
</defs>
</svg>
