<svg width="512" height="512" viewBox="0 0 512 512" fill="none" xmlns="http://www.w3.org/2000/svg">
<path d="M284.596 242.383C289.108 242.383 292.766 238.725 292.766 234.213C292.766 229.701 289.108 226.043 284.596 226.043C280.084 226.043 276.426 229.701 276.426 234.213C276.426 238.725 280.084 242.383 284.596 242.383Z" fill="white"/>
<path d="M284.596 285.958C289.108 285.958 292.766 282.3 292.766 277.787C292.766 273.275 289.108 269.617 284.596 269.617C280.084 269.617 276.426 273.275 276.426 277.787C276.426 282.3 280.084 285.958 284.596 285.958Z" fill="white"/>
<path d="M284.596 329.532C289.108 329.532 292.766 325.874 292.766 321.362C292.766 316.849 289.108 313.191 284.596 313.191C280.084 313.191 276.426 316.849 276.426 321.362C276.426 325.874 280.084 329.532 284.596 329.532Z" fill="white"/>
<path d="M284.596 373.106C289.108 373.106 292.766 369.448 292.766 364.936C292.766 360.424 289.108 356.766 284.596 356.766C280.084 356.766 276.426 360.424 276.426 364.936C276.426 369.448 280.084 373.106 284.596 373.106Z" fill="white"/>
<path d="M284.596 416.681C289.108 416.681 292.766 413.023 292.766 408.511C292.766 403.999 289.108 400.341 284.596 400.341C280.084 400.341 276.426 403.999 276.426 408.511C276.426 413.023 280.084 416.681 284.596 416.681Z" fill="white"/>
<path d="M284.596 460.255C289.108 460.255 292.766 456.598 292.766 452.085C292.766 447.573 289.108 443.915 284.596 443.915C280.084 443.915 276.426 447.573 276.426 452.085C276.426 456.598 280.084 460.255 284.596 460.255Z" fill="white"/>
<path d="M284.596 68.0855C289.108 68.0855 292.766 64.4276 292.766 59.9153C292.766 55.403 289.108 51.7451 284.596 51.7451C280.084 51.7451 276.426 55.403 276.426 59.9153C276.426 64.4276 280.084 68.0855 284.596 68.0855Z" fill="white"/>
<path d="M284.596 111.66C289.108 111.66 292.766 108.002 292.766 103.49C292.766 98.9773 289.108 95.3193 284.596 95.3193C280.084 95.3193 276.426 98.9773 276.426 103.49C276.426 108.002 280.084 111.66 284.596 111.66Z" fill="white"/>
<path d="M284.596 155.234C289.108 155.234 292.766 151.576 292.766 147.064C292.766 142.551 289.108 138.894 284.596 138.894C280.084 138.894 276.426 142.551 276.426 147.064C276.426 151.576 280.084 155.234 284.596 155.234Z" fill="white"/>
<path d="M284.596 198.808C289.108 198.808 292.766 195.15 292.766 190.638C292.766 186.126 289.108 182.468 284.596 182.468C280.084 182.468 276.426 186.126 276.426 190.638C276.426 195.15 280.084 198.808 284.596 198.808Z" fill="white"/>
<path d="M369.022 242.383C373.534 242.383 377.192 238.725 377.192 234.213C377.192 229.701 373.534 226.043 369.022 226.043C364.509 226.043 360.852 229.701 360.852 234.213C360.852 238.725 364.509 242.383 369.022 242.383Z" fill="white"/>
<path d="M369.022 285.958C373.534 285.958 377.192 282.3 377.192 277.787C377.192 273.275 373.534 269.617 369.022 269.617C364.509 269.617 360.852 273.275 360.852 277.787C360.852 282.3 364.509 285.958 369.022 285.958Z" fill="white"/>
<path d="M369.022 329.532C373.534 329.532 377.192 325.874 377.192 321.362C377.192 316.849 373.534 313.191 369.022 313.191C364.509 313.191 360.852 316.849 360.852 321.362C360.852 325.874 364.509 329.532 369.022 329.532Z" fill="white"/>
<path d="M369.022 373.106C373.534 373.106 377.192 369.448 377.192 364.936C377.192 360.424 373.534 356.766 369.022 356.766C364.509 356.766 360.852 360.424 360.852 364.936C360.852 369.448 364.509 373.106 369.022 373.106Z" fill="white"/>
<path d="M369.022 416.681C373.534 416.681 377.192 413.023 377.192 408.511C377.192 403.999 373.534 400.341 369.022 400.341C364.509 400.341 360.852 403.999 360.852 408.511C360.852 413.023 364.509 416.681 369.022 416.681Z" fill="white"/>
<path d="M369.022 460.255C373.534 460.255 377.192 456.598 377.192 452.085C377.192 447.573 373.534 443.915 369.022 443.915C364.509 443.915 360.852 447.573 360.852 452.085C360.852 456.598 364.509 460.255 369.022 460.255Z" fill="white"/>
<path d="M369.022 68.0855C373.534 68.0855 377.192 64.4276 377.192 59.9153C377.192 55.403 373.534 51.7451 369.022 51.7451C364.509 51.7451 360.852 55.403 360.852 59.9153C360.852 64.4276 364.509 68.0855 369.022 68.0855Z" fill="white"/>
<path d="M369.022 111.66C373.534 111.66 377.192 108.002 377.192 103.49C377.192 98.9773 373.534 95.3193 369.022 95.3193C364.509 95.3193 360.852 98.9773 360.852 103.49C360.852 108.002 364.509 111.66 369.022 111.66Z" fill="white"/>
<path d="M369.022 155.234C373.534 155.234 377.192 151.576 377.192 147.064C377.192 142.551 373.534 138.894 369.022 138.894C364.509 138.894 360.852 142.551 360.852 147.064C360.852 151.576 364.509 155.234 369.022 155.234Z" fill="white"/>
<path d="M369.022 198.808C373.534 198.808 377.192 195.15 377.192 190.638C377.192 186.126 373.534 182.468 369.022 182.468C364.509 182.468 360.852 186.126 360.852 190.638C360.852 195.15 364.509 198.808 369.022 198.808Z" fill="white"/>
<path d="M326.809 264.171C331.321 264.171 334.979 260.513 334.979 256C334.979 251.488 331.321 247.83 326.809 247.83C322.297 247.83 318.639 251.488 318.639 256C318.639 260.513 322.297 264.171 326.809 264.171Z" fill="white"/>
<path d="M326.809 307.745C331.321 307.745 334.979 304.087 334.979 299.575C334.979 295.062 331.321 291.404 326.809 291.404C322.297 291.404 318.639 295.062 318.639 299.575C318.639 304.087 322.297 307.745 326.809 307.745Z" fill="white"/>
<path d="M326.809 351.319C331.321 351.319 334.979 347.661 334.979 343.149C334.979 338.636 331.321 334.979 326.809 334.979C322.297 334.979 318.639 338.636 318.639 343.149C318.639 347.661 322.297 351.319 326.809 351.319Z" fill="white"/>
<path d="M326.809 394.893C331.321 394.893 334.979 391.235 334.979 386.723C334.979 382.211 331.321 378.553 326.809 378.553C322.297 378.553 318.639 382.211 318.639 386.723C318.639 391.235 322.297 394.893 326.809 394.893Z" fill="white"/>
<path d="M326.809 438.468C331.321 438.468 334.979 434.81 334.979 430.298C334.979 425.786 331.321 422.128 326.809 422.128C322.297 422.128 318.639 425.786 318.639 430.298C318.639 434.81 322.297 438.468 326.809 438.468Z" fill="white"/>
<path d="M326.809 89.8727C331.321 89.8727 334.979 86.2147 334.979 81.7024C334.979 77.1902 331.321 73.5322 326.809 73.5322C322.297 73.5322 318.639 77.1902 318.639 81.7024C318.639 86.2147 322.297 89.8727 326.809 89.8727Z" fill="white"/>
<path d="M326.809 133.447C331.321 133.447 334.979 129.789 334.979 125.277C334.979 120.764 331.321 117.106 326.809 117.106C322.297 117.106 318.639 120.764 318.639 125.277C318.639 129.789 322.297 133.447 326.809 133.447Z" fill="white"/>
<path d="M326.809 177.021C331.321 177.021 334.979 173.363 334.979 168.851C334.979 164.339 331.321 160.681 326.809 160.681C322.297 160.681 318.639 164.339 318.639 168.851C318.639 173.363 322.297 177.021 326.809 177.021Z" fill="white"/>
<path d="M326.809 220.595C331.321 220.595 334.979 216.937 334.979 212.425C334.979 207.913 331.321 204.255 326.809 204.255C322.297 204.255 318.639 207.913 318.639 212.425C318.639 216.937 322.297 220.595 326.809 220.595Z" fill="white"/>
<path d="M443.915 21.7872C441.748 21.7872 439.67 22.648 438.138 24.1802C436.606 25.7124 435.745 27.7906 435.745 29.9574V482.043C435.745 484.209 436.606 486.288 438.138 487.82C439.67 489.352 441.748 490.213 443.915 490.213C446.082 490.213 448.16 489.352 449.692 487.82C451.225 486.288 452.085 484.209 452.085 482.043V29.9574C452.085 27.7906 451.225 25.7124 449.692 24.1802C448.16 22.648 446.082 21.7872 443.915 21.7872ZM476.596 21.7872C474.429 21.7872 472.351 22.648 470.819 24.1802C469.287 25.7124 468.426 27.7906 468.426 29.9574V482.043C468.426 484.209 469.287 486.288 470.819 487.82C472.351 489.352 474.429 490.213 476.596 490.213C478.763 490.213 480.841 489.352 482.373 487.82C483.906 486.288 484.766 484.209 484.766 482.043V29.9574C484.766 27.7906 483.906 25.7124 482.373 24.1802C480.841 22.648 478.763 21.7872 476.596 21.7872ZM411.234 0H68.0854C65.9186 0 63.8404 0.860788 62.3082 2.393C60.776 3.92521 59.9152 6.00334 59.9152 8.17021V53.7872H43.5748V51.0638C43.5748 48.897 42.714 46.8188 41.1818 45.2866C39.6496 43.7544 37.5715 42.8936 35.4046 42.8936C33.2377 42.8936 31.1596 43.7544 29.6274 45.2866C28.0952 46.8188 27.2344 48.897 27.2344 51.0638V72.8511C27.2344 75.0179 28.0952 77.0961 29.6274 78.6283C31.1596 80.1605 33.2377 81.0213 35.4046 81.0213C37.5715 81.0213 39.6496 80.1605 41.1818 78.6283C42.714 77.0961 43.5748 75.0179 43.5748 72.8511V70.1277H59.9152V118.468H43.5748V115.745C43.5748 113.578 42.714 111.5 41.1818 109.967C39.6496 108.435 37.5715 107.574 35.4046 107.574C33.2377 107.574 31.1596 108.435 29.6274 109.967C28.0952 111.5 27.2344 113.578 27.2344 115.745V137.532C27.2344 139.699 28.0952 141.777 29.6274 143.309C31.1596 144.841 33.2377 145.702 35.4046 145.702C37.5715 145.702 39.6496 144.841 41.1818 143.309C42.714 141.777 43.5748 139.699 43.5748 137.532V134.809H59.9152V183.149H43.5748V180.426C43.5748 178.259 42.714 176.181 41.1818 174.648C39.6496 173.116 37.5715 172.255 35.4046 172.255C33.2377 172.255 31.1596 173.116 29.6274 174.648C28.0952 176.181 27.2344 178.259 27.2344 180.426V202.213C27.2344 204.38 28.0952 206.458 29.6274 207.99C31.1596 209.522 33.2377 210.383 35.4046 210.383C37.5715 210.383 39.6496 209.522 41.1818 207.99C42.714 206.458 43.5748 204.38 43.5748 202.213V199.489H59.9152V247.83H43.5748V245.106C43.5748 242.94 42.714 240.861 41.1818 239.329C39.6496 237.797 37.5715 236.936 35.4046 236.936C33.2377 236.936 31.1596 237.797 29.6274 239.329C28.0952 240.861 27.2344 242.94 27.2344 245.106V266.894C27.2344 269.06 28.0952 271.139 29.6274 272.671C31.1596 274.203 33.2377 275.064 35.4046 275.064C37.5715 275.064 39.6496 274.203 41.1818 272.671C42.714 271.139 43.5748 269.06 43.5748 266.894V264.17H59.9152V312.511H43.5748V309.787C43.5748 307.62 42.714 305.542 41.1818 304.01C39.6496 302.478 37.5715 301.617 35.4046 301.617C33.2377 301.617 31.1596 302.478 29.6274 304.01C28.0952 305.542 27.2344 307.62 27.2344 309.787V331.574C27.2344 333.741 28.0952 335.819 29.6274 337.352C31.1596 338.884 33.2377 339.745 35.4046 339.745C37.5715 339.745 39.6496 338.884 41.1818 337.352C42.714 335.819 43.5748 333.741 43.5748 331.574V328.851H59.9152V377.191H43.5748V374.468C43.5748 372.301 42.714 370.223 41.1818 368.691C39.6496 367.159 37.5715 366.298 35.4046 366.298C33.2377 366.298 31.1596 367.159 29.6274 368.691C28.0952 370.223 27.2344 372.301 27.2344 374.468V396.255C27.2344 398.422 28.0952 400.5 29.6274 402.033C31.1596 403.565 33.2377 404.426 35.4046 404.426C37.5715 404.426 39.6496 403.565 41.1818 402.033C42.714 400.5 43.5748 398.422 43.5748 396.255V393.532H59.9152V441.872H43.5748V439.149C43.5748 436.982 42.714 434.904 41.1818 433.372C39.6496 431.839 37.5715 430.979 35.4046 430.979C33.2377 430.979 31.1596 431.839 29.6274 433.372C28.0952 434.904 27.2344 436.982 27.2344 439.149V460.936C27.2344 463.103 28.0952 465.181 29.6274 466.713C31.1596 468.246 33.2377 469.106 35.4046 469.106C37.5715 469.106 39.6496 468.246 41.1818 466.713C42.714 465.181 43.5748 463.103 43.5748 460.936V458.213H59.9152V503.83C59.9152 505.997 60.776 508.075 62.3082 509.607C63.8404 511.139 65.9186 512 68.0854 512H411.234C413.401 512 415.479 511.139 417.012 509.607C418.544 508.075 419.405 505.997 419.405 503.83V8.17021C419.405 6.00334 418.544 3.92521 417.012 2.393C415.479 0.860788 413.401 0 411.234 0ZM76.2557 98.0426H108.937V106.213C108.937 108.38 109.797 110.458 111.33 111.99C112.862 113.522 114.94 114.383 117.107 114.383H190.639V131.813H117.107C114.94 131.813 112.862 132.674 111.33 134.206C109.797 135.738 108.937 137.816 108.937 139.983V148.153H76.2557V98.0426ZM125.277 98.0426V81.7021H190.639V98.0426H125.277ZM190.639 148.153V164.494H125.277V148.153H190.639ZM76.2557 164.494H108.937V172.664C108.937 174.831 109.797 176.909 111.33 178.441C112.862 179.973 114.94 180.834 117.107 180.834H190.639V214.604H76.2557V164.494ZM76.2557 230.945H190.639V264.715H117.107C114.94 264.715 112.862 265.576 111.33 267.108C109.797 268.64 108.937 270.718 108.937 272.885V281.055H76.2557V230.945ZM190.639 281.055V297.396H125.277V281.055H190.639ZM76.2557 297.396H108.937V305.566C108.937 307.733 109.797 309.811 111.33 311.343C112.862 312.875 114.94 313.736 117.107 313.736H190.639V331.166H117.107C114.94 331.166 112.862 332.027 111.33 333.559C109.797 335.091 108.937 337.169 108.937 339.336V347.506H76.2557V297.396ZM190.639 347.506V363.847H125.277V347.506H190.639ZM76.2557 363.847H108.937V372.017C108.937 374.184 109.797 376.262 111.33 377.794C112.862 379.326 114.94 380.187 117.107 380.187H190.639V397.617H117.107C114.94 397.617 112.862 398.478 111.33 400.01C109.797 401.542 108.937 403.62 108.937 405.787V413.957H76.2557V363.847ZM190.639 413.957V430.298H125.277V413.957H190.639ZM234.213 495.66H76.2557V430.298H108.937V438.468C108.937 440.635 109.797 442.713 111.33 444.245C112.862 445.778 114.94 446.638 117.107 446.638H190.639V471.149C190.639 473.316 191.499 475.394 193.032 476.926C194.564 478.458 196.642 479.319 198.809 479.319C200.976 479.319 203.054 478.458 204.586 476.926C206.118 475.394 206.979 473.316 206.979 471.149V40.8511C206.979 38.6842 206.118 36.6061 204.586 35.0738C203.054 33.5416 200.976 32.6809 198.809 32.6809C196.642 32.6809 194.564 33.5416 193.032 35.0738C191.499 36.6061 190.639 38.6842 190.639 40.8511V65.3617H117.107C114.94 65.3617 112.862 66.2225 111.33 67.7547C109.797 69.2869 108.937 71.365 108.937 73.5319V81.7021H76.2557V16.3404H234.213V495.66ZM403.064 495.66H250.554V16.3404H403.064V495.66Z" fill="white"/>
</svg>
