<svg width="1073" height="2738" viewBox="0 0 1073 2738" fill="none" xmlns="http://www.w3.org/2000/svg">
<path d="M1060.41 2164.31L1073 2147.52C1065 2142.66 1063.43 2143.32 1060.41 2142.14L1053.06 2140.3L1039.16 2137.28L1012.01 2132.03L958.237 2121.54C922.431 2114.45 886.888 2106.84 851.344 2098.7C780.388 2082.3 710.087 2063.54 640.967 2041.23C503.12 1996.49 367.766 1939.41 251.036 1854.77C193.064 1812.39 140.339 1762.52 100.336 1703.74C60.0703 1645.08 34.4945 1577.11 27.5432 1506.52C20.4607 1436.05 30.691 1363.49 52.8566 1295.78C75.4157 1227.94 112.664 1165.48 159.488 1111.02C206.18 1056.44 261.922 1009.59 321.205 967.997C380.619 926.4 443.706 889.922 507.973 855.411C572.241 820.77 637.688 788.096 702.48 753.586C767.141 718.944 831.539 682.859 891.478 639.164L913.512 622.105L924.53 613.576L935.022 604.391L955.876 585.889L975.419 565.813L985.124 555.709L993.912 544.818C999.683 537.47 1005.85 530.384 1011.22 522.773C1021.32 506.896 1032.21 491.543 1039.69 474.091C1048.87 457.558 1053.72 439.187 1060.02 421.341C1062.25 412.156 1063.82 402.84 1065.66 393.654C1066.57 389.062 1067.49 384.469 1068.28 379.745L1069.2 365.705C1073.66 328.439 1068.41 289.467 1055.56 253.907C1042.31 218.347 1021.06 186.198 995.486 158.905C969.91 131.48 940.531 108.255 909.315 88.1783C846.491 48.4192 778.027 19.5512 706.415 0.130859L704.71 6.95421C775.141 26.6369 843.081 55.8986 904.463 95.5265C935.022 115.472 963.746 138.566 988.272 165.466C1012.93 192.234 1033 223.333 1045.46 257.45C1057.39 291.698 1062.25 328.439 1057.52 364.524L1056.61 378.039C1055.82 382.501 1054.9 386.962 1053.98 391.424C1052.15 400.215 1050.57 409.269 1048.34 418.061C1042.18 435.119 1037.46 452.703 1028.41 468.449C1021.19 485.114 1010.44 499.81 1000.6 515.031C995.355 522.379 989.19 529.203 983.551 536.289L974.894 546.786L965.32 556.496L946.171 575.917L925.579 593.762L915.349 602.685L904.463 610.952L882.822 627.485C823.538 669.869 759.402 705.167 694.742 739.152C629.95 773.006 564.24 805.155 499.317 839.403C434.525 873.651 370.389 909.867 309.663 951.594C249.068 993.322 191.621 1040.69 142.831 1096.72C94.0401 1152.49 54.5616 1217.44 30.4286 1288.17C6.68912 1358.76 -4.72159 1434.08 2.09861 1509.01C8.78764 1583.94 35.6749 1656.89 77.6454 1719.09C119.485 1781.55 174.177 1834.04 233.723 1878.39C293.4 1922.74 358.191 1959.48 424.951 1991.24C491.841 2022.86 560.83 2049.5 630.737 2072.72C700.775 2095.82 771.862 2115.5 843.343 2132.69C879.149 2141.22 915.086 2149.22 951.024 2156.7L1004.93 2167.59L1031.69 2173.11L1044.67 2175.99L1050.57 2177.44C1051.62 2177.7 1052.01 2177.83 1052.67 2178.09C1052.93 2177.96 1053.46 2179.01 1052.93 2177.57C1054.38 2172.71 1056.87 2168.25 1060.28 2164.31H1060.41Z" fill="black" fill-opacity="0.1"/>
<path d="M1060.41 2296.32L1073.13 2279.39C1065.52 2274.67 1063.95 2275.19 1060.93 2274.01L1053.59 2272.04L1039.69 2268.63L1012.4 2262.46L958.237 2250.13C922.168 2241.86 886.362 2232.94 850.687 2223.49C779.338 2204.6 708.644 2183.21 639.261 2158.41C500.89 2108.55 365.536 2046.09 249.461 1956.99C191.883 1912.37 139.551 1860.41 99.9415 1799.92C60.3319 1739.56 34.625 1670.41 27.936 1598.63C21.1158 1526.99 31.3461 1453.5 54.561 1384.88C77.907 1316.25 115.943 1252.87 163.291 1197.63C210.638 1142.12 266.774 1094.1 326.451 1051.19C386.258 1008.15 449.739 970.359 514.268 934.011L709.431 826.412C774.091 789.671 838.883 751.88 898.035 705.429C912.725 693.62 927.546 682.072 941.186 668.951C955.482 656.616 968.204 642.576 981.189 628.798C987.747 621.974 993.124 614.101 999.158 606.753C1005.06 599.274 1011.09 591.925 1015.95 583.659L1031.16 559.515L1043.62 533.664C1058.7 498.76 1069.2 461.101 1069.98 422.785C1072.87 384.732 1067.23 345.629 1053.33 309.937C1039.42 274.246 1018.7 241.441 993.387 213.23C968.336 184.755 939.219 160.217 908.528 138.566C846.621 95.658 778.551 63.1159 706.939 40.0215L704.971 46.8448C775.403 70.2017 842.818 103.137 903.413 145.915C933.579 167.434 961.778 191.71 986.042 219.79C1010.57 247.478 1030.24 279.364 1043.36 313.743C1056.34 348.253 1061.46 385.519 1058.44 422.129C1057.39 459.001 1046.9 494.955 1032.21 528.416L1020.01 553.085L1005.06 576.31C1000.47 584.315 994.436 591.269 988.665 598.486C982.763 605.572 977.517 613.183 971.09 619.744C958.368 632.997 945.908 646.643 931.743 658.584C918.365 671.312 903.675 682.466 889.248 694.013C830.62 739.152 766.222 776.156 701.43 812.11L505.35 918.003C440.295 953.956 375.766 991.616 314.778 1034.79C253.789 1077.83 195.949 1126.38 146.634 1183.33C97.3184 1240.01 57.053 1305.62 32.1331 1377.14C7.21312 1448.52 -4.06644 1525.02 2.49144 1600.99C8.91816 1676.97 35.6743 1750.98 76.9889 1814.75C118.304 1878.78 172.34 1933.24 231.493 1979.82C350.584 2072.85 488.037 2137.41 628.113 2189.24C698.282 2214.96 769.763 2237.27 841.769 2256.95C877.837 2266.8 913.905 2275.98 950.236 2284.64L1004.54 2297.37L1031.55 2303.67L1044.67 2306.95L1050.7 2308.65C1051.75 2308.92 1052.15 2309.18 1052.93 2309.44C1054.11 2309.83 1053.19 2309.44 1052.93 2309.44C1052.93 2308.52 1054.64 2304.72 1055.82 2302.75C1057.13 2300.39 1058.83 2298.02 1060.67 2295.93L1060.41 2296.32Z" fill="black" fill-opacity="0.1"/>
<path d="M1060.28 2427.41L1073 2410.35C1065.52 2405.75 1063.95 2406.15 1060.93 2404.97L1053.46 2402.87L1039.42 2399.19L1011.88 2392.37L957.056 2378.85C920.594 2369.67 884.395 2359.96 848.327 2349.59C776.321 2328.86 704.971 2305.5 635.064 2278.74C495.775 2224.94 359.633 2158.54 243.952 2065.11C186.505 2018.4 134.698 1964.47 95.8756 1902.01C56.9218 1839.81 32.2642 1769.08 26.7555 1696C20.9846 1623.04 33.3134 1548.64 58.1022 1479.49C83.1533 1410.2 122.632 1346.43 171.16 1290.53C219.557 1234.37 276.611 1185.56 337.205 1141.73C397.8 1097.77 461.805 1058.27 526.728 1020.22C591.651 982.168 657.623 945.558 722.678 906.717C787.601 868.008 851.868 826.937 910.364 777.861C925.316 766.051 938.825 752.405 952.859 739.414C959.81 732.722 965.975 725.374 972.533 718.419C979.091 711.333 985.649 704.379 991.288 696.506L1008.99 673.543L1024.34 649.005C1029.85 641 1033.91 632.209 1037.98 623.417C1041.78 614.494 1047.03 606.228 1049.78 596.78C1064.21 560.564 1069.46 521.461 1070.9 482.882C1070.9 444.042 1062.9 405.201 1048.34 369.247C1018.83 297.077 965.057 238.685 905.38 191.709C844.916 144.995 778.288 107.598 707.07 79.5176L704.709 86.0785C774.616 114.29 840.719 152.081 900.003 198.664C958.499 245.509 1010.7 303.245 1038.51 373.315C1052.15 408.219 1059.49 445.485 1059.36 482.882C1057.65 520.148 1052.41 557.546 1038.24 592.318C1010.57 661.995 959.155 719.731 901.314 766.839C843.343 814.602 779.469 854.755 714.546 892.808C649.492 930.862 583.257 966.947 517.809 1004.61C452.362 1042.27 387.57 1081.5 325.795 1125.59C264.02 1169.55 205.392 1218.75 155.028 1276.23C104.663 1333.44 62.8239 1399.31 36.1989 1471.48C9.83622 1543.52 -3.80417 1620.81 1.70445 1698.09C6.81959 1775.38 32.5265 1850.83 72.923 1916.57C113.188 1982.58 166.832 2039.26 225.853 2087.94C344.55 2185.31 482.659 2253.8 623.654 2309.57C694.348 2337.39 766.353 2361.4 839.146 2383.05C875.476 2393.81 912.069 2403.92 948.662 2413.5L1003.62 2427.54L1030.9 2434.49L1044.14 2438.03L1050.31 2439.87C1051.49 2440.13 1051.88 2440.4 1052.67 2440.66C1052.8 2440.66 1053.85 2441.05 1052.93 2440.66C1052.01 2441.84 1054.51 2436.2 1055.56 2434.62C1057 2432 1058.7 2429.64 1060.67 2427.41H1060.28Z" fill="black" fill-opacity="0.1"/>
<path d="M1060.15 2574.24L1073 2557.05C1065.79 2552.59 1064.34 2552.85 1061.33 2551.67L1053.85 2549.31L1039.69 2545.24L1011.88 2537.5L956.663 2522.01C919.939 2511.52 883.346 2500.49 847.147 2488.82C774.485 2465.46 702.742 2439.48 632.573 2409.95C492.628 2350.77 356.355 2278.87 241.199 2180.72C184.014 2131.64 132.732 2075.35 94.3024 2011.18C55.8732 1947.15 31.4779 1874.85 26.4939 1800.45C20.9853 1726.04 34.6257 1650.59 60.4637 1580.39C86.5641 1510.06 126.961 1445.5 176.145 1388.16C225.198 1330.68 283.038 1280.69 343.633 1234.76C404.359 1188.84 468.495 1147.11 533.418 1106.43C598.341 1065.89 664.313 1026.52 729.105 985.055C793.766 943.459 857.639 899.501 915.611 847.801C923.087 841.634 929.907 834.679 936.858 827.856C943.81 821.032 950.892 814.34 957.581 807.254C970.304 792.427 984.075 778.518 995.224 762.378C1019.36 731.673 1038.51 696.506 1051.75 659.503C1066.18 622.63 1070.11 582.609 1070.64 543.375C1069.59 503.878 1060.93 464.644 1045.59 428.427C1014.77 355.733 961.778 295.635 903.02 245.509C843.605 195.646 778.027 154.05 707.595 121.114L704.71 127.544C773.961 160.611 839.015 202.47 897.249 252.201C954.958 302.064 1006.37 361.637 1035.75 432.495C1050.31 467.662 1058.31 505.584 1059.1 543.506C1058.31 581.297 1054.38 619.744 1040.08 655.173C1026.96 690.733 1008.34 724.325 984.6 754.111C973.714 769.726 960.073 783.11 947.613 797.544C941.056 804.368 933.973 810.797 927.153 817.489C920.333 824.182 913.512 830.874 906.168 836.91C848.721 887.298 785.24 930.337 720.449 971.146C655.657 1011.95 589.422 1050.66 523.975 1090.82C458.527 1130.97 393.604 1172.57 331.829 1218.49C270.185 1264.68 210.77 1314.94 159.881 1373.59C108.992 1431.98 66.2346 1498.64 38.5604 1571.73C11.0173 1644.69 -3.80351 1723.16 1.31164 1801.76C5.90215 1880.36 31.2156 1957.25 71.0875 2024.7C110.828 2092.41 163.816 2151.32 222.443 2202.37C340.354 2304.45 478.594 2378.59 620.113 2439.74C691.069 2470.18 763.599 2497.08 836.785 2521.36C873.378 2533.43 910.234 2544.98 947.22 2555.87L1002.7 2571.88L1030.24 2579.75L1043.62 2583.82L1049.92 2585.92C1051.1 2586.31 1051.49 2586.57 1052.41 2586.84C1052.54 2586.84 1053.72 2587.36 1052.8 2586.97C1052.01 2587.89 1053.2 2585.13 1055.03 2581.85C1056.61 2579.09 1058.57 2576.34 1060.67 2573.85L1060.15 2574.24Z" fill="black" fill-opacity="0.1"/>
<path d="M1060.02 2725.01L1073 2707.69C1066.05 2703.36 1064.61 2703.62 1061.59 2702.18L1054.11 2699.68L1039.82 2695.09L1011.75 2686.43L956.007 2668.98C919.021 2657.17 882.166 2644.84 845.573 2631.84C772.518 2605.73 700.25 2577.13 629.819 2544.98C489.218 2480.42 353.076 2403.13 238.444 2300.26C181.522 2248.82 130.633 2190.43 92.5971 2124.42C54.5614 2058.55 30.5596 1984.81 25.9691 1908.96C23.6082 1871.17 25.9691 1832.99 32.1335 1795.46C35.4124 1776.7 39.216 1758.06 44.8558 1739.69L52.5941 1712.14C55.7418 1703.08 59.2831 1694.29 62.562 1685.37C89.7116 1613.98 130.895 1548.24 180.342 1489.33C280.546 1371.76 408.031 1280.03 536.565 1192.64C601.095 1148.95 666.543 1106.3 730.81 1061.56C794.946 1016.68 858.033 969.572 915.349 915.247C929.907 901.994 943.023 887.035 956.794 872.864C969.254 857.511 983.026 843.077 994.043 826.544C1018.18 794.92 1036.93 759.097 1050.7 721.569L1059.88 692.963L1065.66 663.439C1068.02 653.598 1068.41 643.625 1069.07 633.653C1069.46 623.68 1070.9 613.708 1070.38 603.604C1069.46 563.451 1060.67 523.561 1045.33 486.688C1014.37 412.55 961.647 350.877 902.889 298.653C843.605 246.69 778.027 202.732 707.464 167.172L704.447 173.602C773.83 209.293 838.884 253.514 896.986 305.476C954.696 357.438 1005.98 418.717 1035.36 490.887C1050.05 526.841 1058.05 565.288 1058.7 603.997C1059.23 613.708 1057.65 623.287 1057.26 632.997C1056.61 642.707 1056.21 652.286 1053.85 661.734L1048.08 690.208L1038.9 717.764C1025.26 753.849 1006.9 788.359 983.157 819.064C972.402 835.204 958.762 849.113 946.433 864.072C932.793 877.85 919.808 892.284 905.381 905.275C848.589 958.287 785.634 1004.48 721.498 1048.57C657.23 1092.52 591.389 1134.64 526.466 1177.95C396.883 1264.55 267.43 1355.88 163.685 1475.55C112.402 1535.38 69.2511 1603.09 40.3964 1677.1C36.8551 1686.42 33.0516 1695.6 29.7726 1704.92L21.5097 1733.52C15.6076 1752.55 11.4106 1771.97 7.86932 1791.52C0.91797 1830.76 -1.70518 1870.78 0.393339 1910.67C4.45922 1990.58 29.3792 2068.92 68.7264 2138.2C107.943 2207.75 160.537 2268.63 218.64 2322.17C335.894 2428.98 474.003 2508.63 615.916 2575.16C687.134 2608.36 759.927 2638.01 833.637 2664.91C870.493 2678.43 907.61 2691.16 944.859 2703.36L1000.73 2721.34L1028.54 2730.13L1042.18 2734.59L1048.6 2736.82L1051.23 2737.87C1051.23 2737.87 1052.54 2738.39 1051.75 2738.13C1051.49 2738.26 1050.97 2738.52 1053.46 2734.19C1055.29 2731.05 1057.39 2728.16 1059.62 2725.4L1060.02 2725.01Z" fill="black" fill-opacity="0.1"/>
<path d="M804.914 2593.13C813.702 2620.3 798.881 2649.43 771.6 2658.22C744.451 2667.01 715.334 2652.18 706.415 2624.89C697.627 2597.73 712.448 2568.6 739.729 2559.8C766.879 2551.01 795.996 2565.97 804.783 2593.13H804.914Z" fill="#ED1C24"/>
<path d="M785.503 2194.49C783.404 2194.89 781.568 2195.81 779.601 2196.59C763.993 2147.39 749.959 2102.9 740.385 2072.33C763.206 2031.78 783.404 1989.01 794.159 1945.05C827.604 1807.66 744.975 1695.21 709.432 1693.24C695.922 1692.45 687.922 1703.08 683.725 1710.43C640.443 1779.84 681.101 1934.16 709.825 2021.94C656.444 2106.45 594.013 2202.5 579.717 2271.52C554.534 2392.9 661.69 2524.24 825.375 2471.23C835.343 2467.95 844.524 2464.15 853.049 2459.69C858.82 2476.87 863.804 2490.92 867.345 2500.36C888.855 2557.84 892.659 2600.09 878.756 2629.22C869.05 2649.56 851.082 2663.99 823.801 2673.31C823.276 2673.44 822.752 2673.7 822.227 2673.83C746.943 2698.11 757.173 2612.16 755.992 2609.01L706.94 2625.28C707.202 2626.2 732.646 2714.9 825.768 2684.86C826.293 2684.59 826.949 2684.46 827.473 2684.2C857.508 2674.1 878.363 2657.17 889.249 2634.21C904.725 2601.53 901.184 2557.71 878.231 2496.3C874.559 2486.59 869.444 2472.02 863.411 2453.91C994.043 2373.21 922.3 2165.76 785.896 2194.49H785.503ZM768.977 1835.61C776.06 1885.61 754.287 1948.2 718.744 2007.11C714.94 1995.96 710.35 1981.53 705.89 1965.26C696.053 1925.5 686.479 1875.37 688.053 1850.83C691.856 1792.31 712.186 1777.74 712.186 1777.61C726.351 1766.33 757.435 1755.44 768.977 1835.74V1835.61ZM820.129 2454.31C682.675 2485.01 615.523 2380.95 624.835 2294.35C630.868 2238.58 685.43 2166.68 732.515 2085.84C741.959 2115.89 754.812 2156.44 768.715 2200.53C670.74 2242.52 675.593 2356.81 717.039 2383.19C745.893 2401.69 763.075 2388.3 763.075 2388.3C713.235 2369.54 719.662 2287.92 786.159 2266.4C787.208 2266.01 788.388 2265.74 789.438 2265.48C809.898 2329.52 830.883 2394.34 846.753 2441.84C839.146 2446.83 830.621 2451.94 820.129 2454.31ZM856.59 2434.62C841.114 2388.04 820.784 2325.58 800.98 2263.65C881.248 2247.11 922.038 2378.85 856.59 2434.62Z" fill="#ED1C24"/>
<path d="M904.987 854.23C888.855 858.298 872.46 862.366 856.065 866.434C841.376 870.108 818.817 876.537 804.127 880.212C796.651 882.18 796.52 882.049 796.913 889.922C798.618 932.568 799.799 958.155 801.504 1000.67C802.16 1018.65 793.11 1031.64 775.666 1037.8C767.403 1040.69 759.14 1041.35 751.271 1037.02C743.008 1032.42 739.86 1023.76 743.795 1015.24C750.746 1000.28 763.075 992.141 778.945 989.123C783.798 988.204 788.257 990.435 792.979 990.697C794.29 987.286 793.503 984.268 793.372 981.118C791.667 936.504 790.356 908.948 788.519 864.334C788.519 862.628 788.388 860.923 788.388 859.217C788.388 853.312 788.651 852.656 794.553 850.95C802.422 848.719 810.423 846.882 818.292 844.783C832.982 840.977 855.541 834.548 870.231 830.742C882.822 827.462 895.282 824.181 907.873 821.032C912.201 819.982 913.25 820.77 913.775 825.494C914.037 827.462 913.906 829.43 914.037 831.398C916.136 883.098 916.923 917.74 920.07 969.309C921.382 990.172 900.397 1010.77 876.788 1008.28C863.673 1006.84 856.59 993.715 862.492 981.643C869.837 966.947 887.281 955.924 904.069 958.155C910.496 959.074 910.758 958.942 910.496 952.513C909.447 924.826 908.791 914.197 907.742 886.51C907.348 877.194 906.955 867.877 906.561 858.561C906.561 856.855 906.561 855.149 904.987 853.574V854.23Z" fill="#2E3090"/>
<path d="M49.5774 2066.69C46.2984 2045.69 43.0195 2024.83 39.7406 2003.83C39.4783 2002.13 39.2159 2000.42 39.2159 1998.59C39.2159 1996.88 40.2652 1996.09 41.8391 1995.7C43.2818 1995.44 44.7246 1995.3 45.5115 1996.88C46.1673 1998.06 46.6919 1999.37 47.0854 2000.68C54.9548 2017.35 83.416 2039 91.679 2045.04C108.598 2057.5 116.73 2073.77 113.32 2095.16C111.615 2105.79 110.434 2108.81 107.942 2107.5C105.975 2106.45 107.024 2103.56 106.762 2092.54C106.237 2070.49 94.0398 2063.8 71.8742 2057.5C68.4641 2056.58 65.054 2056.06 61.5127 2055.67C55.2172 2055.01 54.6925 2055.53 55.6106 2061.7C57.7091 2075.48 58.6273 2079.68 60.8569 2093.59C63.6112 2111.3 72.0053 2162.74 75.1531 2180.32C76.727 2189.25 76.4647 2197.25 68.9887 2205.39C58.1026 2217.33 44.4622 2222.44 27.9364 2221.13C12.591 2219.95 5.77076 2205.91 15.3453 2190.95C26.2313 2174.68 41.0521 2169.04 61.2504 2170.35C65.9721 2170.61 66.6279 2169.43 65.9721 2165.36C62.4308 2143.71 53.2498 2088.34 49.8397 2066.69H49.5774Z" fill="#2E3090"/>
<path d="M420.754 883.492C401.605 895.171 382.193 906.849 362.782 918.79C345.338 929.419 318.975 946.608 301.531 957.237C292.744 962.617 292.482 962.617 296.023 972.59C315.172 1026.65 326.976 1059.06 346.125 1113.12C354.126 1135.83 347.699 1156.3 327.763 1171.12C318.32 1178.21 308.089 1182.28 296.154 1179.78C283.825 1177.16 276.218 1167.32 277.923 1154.85C280.809 1132.81 293.4 1117.45 312.68 1107.35C318.451 1104.33 325.14 1105.25 331.304 1103.81C331.567 1098.95 329.337 1095.28 328.025 1091.47C307.958 1034.92 295.367 1000.01 275.3 943.459C274.513 941.36 273.726 939.129 273.07 937.029C270.709 929.419 270.841 928.5 277.792 924.039C286.973 918.003 296.416 912.491 305.729 906.587C323.041 895.827 349.404 878.637 366.848 867.877C381.669 858.692 396.49 849.507 411.31 840.453C416.557 837.303 418.131 837.96 420.623 843.864C421.672 846.357 422.459 848.851 423.377 851.344C446.592 916.822 461.544 961.042 486.201 1026C496.169 1052.24 477.545 1087.14 446.198 1093.31C428.754 1096.85 414.458 1082.68 417.344 1064.84C420.885 1042.92 438.853 1021.93 461.413 1018.12C470.069 1016.68 470.2 1016.42 467.315 1008.28C454.986 973.114 449.871 959.73 437.411 924.695C433.214 912.885 429.017 901.075 424.82 889.266C424.033 887.166 423.508 884.804 420.754 883.623V883.492Z" fill="#2E3090"/>
<path d="M633.491 1057.09C633.36 1034.39 633.491 967.997 633.754 945.165C633.754 929.419 633.754 871.814 633.754 858.299H633.491C633.491 858.299 633.491 858.299 633.491 858.167C634.147 855.937 632.835 853.575 630.475 852.919C628.114 852.262 625.884 853.575 625.228 855.937V856.199C625.228 856.199 625.097 857.249 625.228 857.774C624.966 886.51 624.835 1008.41 624.704 1036.23C624.704 1041.61 623.654 1042.92 617.752 1041.61C592.701 1035.57 572.896 1039.51 555.846 1057.75C540.632 1074.55 546.271 1093.57 565.289 1098.3C585.881 1103.41 603.981 1099.74 620.113 1087.14C631.13 1078.61 633.229 1068.51 633.098 1057.09H633.491ZM589.685 1083.47C571.06 1082.42 556.239 1074.81 556.764 1066.67C557.289 1058.41 572.765 1052.76 591.39 1053.81C610.014 1054.86 624.835 1062.47 624.31 1070.61C623.786 1078.75 608.309 1084.65 589.685 1083.47Z" fill="#2E3090"/>
<path d="M438.591 2333.45C436.099 2305.37 429.672 2223.23 427.705 2195.02C426.393 2175.6 420.229 2104.22 419.048 2087.68H418.786C419.311 2084.8 417.475 2082.04 414.589 2081.52C411.704 2080.99 408.949 2082.83 408.425 2085.71C408.425 2085.71 408.425 2085.98 408.425 2086.11C408.425 2086.76 408.425 2087.42 408.425 2088.08C410.917 2123.64 423.245 2274.54 425.869 2308.92C426.393 2315.48 425.213 2317.31 417.868 2316.26C386.259 2311.41 362.257 2318.23 342.846 2342.51C325.795 2364.82 334.583 2387.78 358.585 2391.72C384.423 2395.91 406.588 2389.62 425.344 2372.29C438.197 2360.62 439.771 2347.89 438.46 2333.72L438.591 2333.45Z" fill="#2E3090"/>
<path d="M229.001 1773.28C215.23 1735.1 201.458 1697.05 187.818 1658.86C186.637 1655.71 185.719 1652.56 184.932 1649.28C184.277 1646.13 185.982 1644.16 188.736 1642.98C191.359 1641.93 193.982 1641.28 196.081 1643.77C197.786 1645.87 199.229 1648.1 200.409 1650.46C221.263 1678.94 282.514 1709.25 300.089 1717.65C336.288 1734.84 357.536 1762.39 358.847 1803.86C359.503 1824.46 358.191 1830.49 353.076 1828.92C348.879 1827.74 349.929 1821.83 345.338 1801.23C336.288 1759.9 311.237 1751.76 267.299 1748.22C260.61 1747.7 253.921 1747.96 247.232 1748.48C235.035 1749.4 234.248 1750.71 238.313 1761.87C247.363 1787.06 250.511 1794.54 259.561 1819.73C271.103 1851.88 305.466 1945.44 317.664 1977.33C323.828 1993.47 326.32 2008.82 315.041 2026.53C298.777 2052.91 275.169 2067.34 243.691 2071.02C214.443 2074.43 196.737 2050.55 209.196 2018.92C223.755 1984.28 249.462 1968.4 287.891 1963.68C296.941 1962.63 297.597 1960.14 294.842 1952.53C280.415 1913.16 243.166 1812.52 228.87 1773.15L229.001 1773.28Z" fill="#2E3090"/>
</svg>
