<svg width="4536" height="3268" viewBox="0 0 4536 3268" fill="none" xmlns="http://www.w3.org/2000/svg">
<g clip-path="url(#clip0_1529_105)">
<path d="M0 2312.13L30.0448 2342.63C69.1337 2305.69 113.588 2271.05 158.348 2238.86C203.416 2206.51 250.169 2176.47 298.149 2148.57C394.262 2092.78 495.586 2046.18 600.13 2008.78C809.677 1935.35 1033.33 1901.02 1255.44 1913.44C1366.43 1919.26 1476.95 1935.66 1585.02 1962.33C1639.13 1975.82 1691.71 1991.76 1747.66 2006.02C1761.3 2010.16 1775.56 2012.3 1789.66 2014.91C1803.76 2017.36 1817.86 2020.43 1832.12 2022.11C1860.94 2024.41 1889.6 2028.09 1918.88 2026.1C1976.83 2024.41 2036.3 2010.92 2087.19 1980.27C2138.39 1949.92 2178.71 1904.7 2209.06 1855.8C2239.72 1806.6 2262.25 1753.71 2280.95 1700.07C2299.81 1646.42 2315.6 1592.15 2330.62 1538.04C2360.66 1429.67 2388.41 1321 2429.03 1217.53C2448.96 1165.57 2473.33 1115.75 2502.15 1068.84C2509.81 1057.35 2516.41 1045.24 2524.84 1034.36L2549.67 1001.4C2567.91 980.86 2585.54 959.86 2606.69 942.386C2687.94 869.27 2793.25 822.518 2902.08 808.876C2956.65 801.825 3012.3 802.131 3067.48 807.496C3122.82 812.708 3177.85 822.212 3233.19 832.022C3288.53 841.525 3344.17 852.102 3401.5 854.861C3430.01 856.394 3458.99 855.934 3487.65 851.182C3516.32 846.89 3544.98 838.766 3570.89 824.971C3623.93 799.066 3663.17 751.395 3693.06 704.643C3725.25 658.198 3753.92 609.454 3781.81 560.557C3809.71 511.66 3835.93 461.996 3865.82 415.091C3895.56 368.186 3929.13 323.734 3971.13 288.173C4012.67 251.998 4063.25 227.932 4115.99 211.684C4142.05 202.487 4169.48 197.889 4196.77 192.37C4210.26 189.152 4224.36 188.538 4238 186.699L4279.55 181.947L4278.93 173.67L4237.08 178.115C4223.14 179.955 4209.03 180.414 4195.39 183.633C4167.8 188.998 4140.05 193.443 4113.38 202.64C4059.73 218.735 4007.61 243.107 3964.69 280.049C3921.31 316.223 3886.66 361.442 3856.31 408.653C3825.81 456.018 3799.14 505.528 3771.08 554.119C3743.03 602.71 3714.21 650.841 3682.02 696.673C3651.52 743.424 3614.57 787.263 3564.45 811.635C3539.92 824.511 3512.94 831.868 3485.66 835.854C3458.22 840.146 3430.32 840.452 3402.57 838.766C3346.93 835.7 3291.75 824.971 3236.56 815.161C3181.38 805.044 3125.89 795.08 3069.63 789.256C3013.53 783.431 2956.5 782.818 2900.09 789.716C2787.27 803.204 2678.28 850.569 2592.9 926.291C2570.82 944.532 2552.28 966.145 2533.27 987.451L2507.36 1021.33C2498.62 1032.67 2491.73 1045.09 2483.76 1056.89C2453.86 1105.17 2428.42 1156.22 2407.88 1208.79C2365.88 1313.94 2337.21 1423.24 2306.71 1530.99C2291.38 1584.95 2275.28 1638.6 2256.58 1691.02C2237.88 1743.44 2215.65 1794.64 2186.22 1840.93C2157.09 1887.22 2119.54 1928.3 2073.09 1955.28C2026.8 1982.72 1972.69 1994.83 1918.42 1996.06C1891.29 1997.89 1863.85 1994.06 1836.57 1991.76C1822.92 1990.08 1809.43 1986.86 1795.94 1984.56C1782.45 1981.95 1768.81 1979.81 1755.48 1975.67C1702.44 1961.87 1647.71 1944.86 1593.14 1930.91C1483.39 1903.01 1371.02 1885.69 1257.74 1879.1C1031.33 1865 802.472 1898.57 587.867 1972.3C480.717 2009.85 376.94 2056.76 278.374 2113.16C229.168 2141.37 181.035 2171.87 134.588 2204.67C87.9884 2237.78 43.381 2271.97 0.613159 2311.97L0 2312.13Z" fill="black" fill-opacity="0.1"/>
<path d="M168.006 2519.52L199.277 2548.79C236.68 2510.17 279.601 2473.53 322.829 2439.5C366.516 2405.32 411.89 2373.29 458.49 2343.24C551.997 2283.31 651.175 2232.42 754.033 2190.42C960.208 2107.95 1182.17 2063.81 1404.6 2066.57C1515.73 2067.49 1626.87 2078.98 1736.01 2101.05C1790.73 2112.09 1843.92 2125.89 1900.49 2137.69C1914.28 2141.21 1928.69 2142.75 1942.8 2144.74C1957.05 2146.58 1971.15 2149.03 1985.56 2150.1C2014.38 2151.18 2043.2 2153.63 2072.33 2150.26C2130.12 2145.97 2188.98 2130.02 2238.49 2097.07C2288.31 2064.57 2326.63 2017.67 2354.84 1967.39C2383.35 1916.96 2403.43 1863.01 2419.83 1808.74C2436.24 1754.33 2449.73 1699.45 2462.45 1644.73C2487.74 1535.13 2510.73 1425.38 2546.76 1320.23C2564.39 1267.5 2586.61 1216.61 2613.29 1168.48C2620.34 1156.68 2626.62 1144.26 2634.44 1133.07L2657.74 1099.19C2675.06 1077.89 2691.77 1056.12 2712 1037.73C2790.03 961.086 2893.19 909.736 3001.42 891.495C3055.68 882.145 3111.17 879.846 3166.66 882.912C3222.15 885.824 3277.49 892.875 3333.29 900.233C3388.93 907.284 3445.04 915.408 3502.37 915.714C3530.88 916.021 3559.85 914.181 3588.36 908.357C3616.72 902.838 3645.08 893.488 3670.37 878.466C3722.18 850.262 3759.28 800.905 3787.18 752.927C3817.38 705.103 3843.9 655.133 3869.5 605.009C3895.25 554.885 3919.31 504.302 3947.06 456.018C3974.65 407.887 4006.38 361.902 4046.85 324.654C4086.71 286.793 4136.22 260.428 4188.19 242.034C4213.79 231.764 4241.07 225.939 4268.05 219.195C4281.39 215.363 4295.34 214.29 4309.13 211.684L4350.37 205.093L4349.45 196.969L4307.75 203.253C4293.96 205.706 4279.85 206.626 4266.21 210.458C4238.92 217.049 4211.33 222.72 4185.12 232.99C4132.23 251.384 4081.19 278.056 4039.95 316.836C3998.11 354.851 3965.46 401.602 3937.25 450.039C3908.89 498.63 3884.37 549.367 3858.46 599.031C3832.55 648.848 3805.88 698.205 3775.68 745.416C3747.32 793.394 3712.37 838.919 3663.17 865.437C3639.25 879.386 3612.58 887.97 3585.45 893.182C3558.32 898.546 3530.42 900.233 3502.52 899.773C3446.72 899.16 3391.23 890.882 3335.59 883.371C3279.94 875.554 3224.15 868.043 3167.73 864.824C3111.32 861.452 3054.45 863.291 2998.35 872.642C2886.29 891.036 2779.45 943.152 2697.44 1022.55C2676.29 1041.71 2658.51 1064.25 2640.57 1086.17L2616.2 1121.11C2608.07 1132.76 2601.64 1145.49 2594.12 1157.6C2566.38 1207.11 2543.23 1259.22 2524.99 1312.72C2487.74 1419.56 2463.83 1530.07 2437.92 1639.06C2424.89 1693.63 2411.25 1747.89 2394.85 1801.08C2378.45 1854.27 2358.52 1906.38 2331.23 1953.9C2304.1 2001.42 2268.54 2044.03 2223.16 2073.16C2178.1 2102.59 2124.6 2117 2070.33 2120.67C2043.2 2123.59 2015.76 2121.13 1988.32 2119.91C1974.68 2118.68 1961.04 2116.23 1947.39 2114.39C1933.75 2112.4 1920.11 2110.86 1906.62 2107.34C1852.97 2095.84 1797.63 2081.28 1742.45 2069.63C1631.62 2046.64 1518.49 2034.07 1405.21 2032.38C1178.34 2028.09 951.164 2071.78 739.93 2154.7C634.62 2196.86 532.836 2248.36 436.876 2308.91C388.897 2339.26 342.296 2371.75 297.229 2406.55C252.162 2441.65 209.088 2477.82 168.006 2519.52Z" fill="black" fill-opacity="0.1"/>
<path d="M368.049 2751.13L400.853 2778.72C436.109 2738.25 477.038 2699.32 518.426 2662.99C560.121 2626.51 603.809 2592.02 648.876 2559.68C739.01 2494.84 835.429 2438.74 935.834 2391.37C1137.26 2298.02 1356.62 2242.23 1578.89 2233.03C1689.87 2227.97 1801.46 2233.64 1911.68 2249.74C1966.86 2257.86 2020.67 2268.75 2077.84 2277.48C2091.79 2280.24 2106.2 2281.01 2120.61 2282.23C2134.87 2283.31 2149.12 2284.99 2163.53 2285.3C2192.5 2284.84 2221.32 2285.76 2250.29 2280.86C2307.78 2273.5 2365.72 2254.34 2413.4 2218.93C2461.37 2183.83 2497.09 2134.93 2522.69 2083.27C2548.44 2031.31 2565.77 1976.43 2579.25 1921.41C2592.74 1866.22 2603.32 1810.74 2612.98 1755.25C2632.29 1644.42 2649.61 1533.75 2679.81 1426.76C2694.53 1373.11 2714.15 1321.15 2738.22 1271.64C2744.65 1259.53 2750.17 1246.81 2757.38 1235.16L2778.84 1200.05C2794.93 1177.98 2810.57 1155.3 2829.88 1135.68C2903.77 1055.05 3004.02 998.334 3111.02 974.268C3164.67 962.006 3220.01 956.794 3275.5 956.794C3330.99 956.794 3386.79 960.779 3442.74 965.225C3498.69 969.363 3555.1 974.422 3612.43 971.663C3640.94 970.436 3669.76 967.064 3697.96 959.706C3726.02 952.655 3753.76 941.772 3778.29 925.524C3828.57 894.561 3862.9 843.364 3888.2 793.854C3915.79 744.497 3939.7 693.147 3962.54 641.797C3985.54 590.447 4006.84 538.484 4031.98 488.82C4056.97 439.156 4086.25 391.638 4124.57 352.398C4162.43 312.391 4210.41 283.42 4261.3 262.267C4286.44 250.618 4313.27 243.414 4339.79 235.29C4352.97 230.691 4366.77 228.852 4380.41 225.633L4421.19 216.895L4419.81 208.771L4378.57 217.355C4364.93 220.574 4350.83 222.26 4337.49 226.859C4310.51 234.83 4283.38 242.034 4257.63 253.683C4205.81 274.837 4156.3 304.267 4117.06 345.04C4077.36 385.201 4047.16 433.638 4021.56 483.608C3995.81 533.732 3974.04 585.542 3950.89 636.585C3927.75 687.629 3903.68 738.365 3876.09 787.109C3850.33 836.62 3817.84 883.831 3770.16 912.955C3747.02 928.13 3720.8 938.094 3693.98 944.685C3667.15 951.582 3639.41 954.648 3611.51 955.568C3555.86 958.02 3499.91 952.502 3443.96 948.057C3388.01 943.305 3331.75 938.707 3275.34 938.4C3218.93 938.094 3162.06 942.845 3106.73 955.261C2995.74 979.633 2891.81 1037.27 2814.25 1120.96C2794.17 1141.19 2777.61 1164.65 2760.75 1187.49L2738.22 1223.81C2730.71 1235.92 2724.88 1248.95 2718.14 1261.37C2693 1312.26 2672.61 1365.45 2657.28 1419.86C2625.7 1528.54 2607.77 1640.13 2587.69 1750.34C2577.57 1805.52 2566.84 1860.4 2553.2 1914.35C2539.71 1968.31 2522.54 2021.35 2497.7 2070.4C2473.18 2119.29 2439.76 2163.75 2396.23 2195.17C2352.85 2227.05 2300.11 2244.22 2246.16 2250.66C2219.18 2255.1 2191.74 2254.03 2164.3 2254.34C2150.66 2253.88 2136.86 2252.04 2123.06 2250.97C2109.27 2249.74 2095.63 2248.97 2081.98 2246.06C2027.87 2237.32 1971.77 2225.83 1915.97 2217.24C1804.07 2200.07 1690.48 2193.64 1577.2 2198.08C1350.48 2205.9 1125.91 2261.54 919.432 2355.66C816.422 2403.48 717.55 2460.2 624.963 2525.8C578.669 2558.76 533.755 2593.71 490.834 2630.8C447.76 2668.2 406.678 2706.52 367.742 2750.52L368.049 2751.13Z" fill="black" fill-opacity="0.1"/>
<path d="M573.764 2992.09L608.101 3017.69C641.058 2975.38 679.534 2934.3 718.623 2895.83C758.171 2857.2 799.56 2820.41 842.634 2785.62C928.783 2716.03 1021.52 2654.56 1118.86 2601.83C1314.15 2497.29 1529.22 2429.23 1749.96 2407.01C1860.17 2395.51 1971.61 2395.05 2082.14 2404.4C2137.63 2409 2191.58 2417.12 2249.07 2422.64L2270.38 2424.79L2291.84 2425.4L2334.76 2426.48L2377.83 2423.72C2385.04 2423.1 2392.24 2423.1 2399.29 2421.88L2420.75 2418.04C2477.62 2408.39 2534.65 2387.39 2581.09 2350.29C2627.85 2313.66 2661.72 2263.38 2684.87 2210.81C2708.48 2157.92 2722.27 2102.13 2733.31 2046.64C2744.04 1991 2751.55 1935.2 2758.14 1879.41C2771.33 1767.97 2782.21 1656.69 2805.51 1548.32C2817.47 1494.21 2832.95 1441.02 2853.49 1389.97C2873.72 1338.78 2901.62 1291.11 2935.04 1248.19C2968.3 1205.11 3009.69 1168.17 3055.07 1137.36C3100.29 1106.55 3150.26 1082.64 3202.68 1066.7C3255.11 1050.6 3309.83 1042.02 3365.02 1038.04C3420.2 1034.05 3476 1034.97 3531.8 1036.2C3587.75 1037.42 3644.16 1039.11 3700.88 1034.66C3729.24 1032.21 3757.59 1027.77 3785.65 1020.41C3813.54 1012.74 3840.52 1001.09 3865.2 985.459C3890.19 969.977 3910.88 948.824 3929.13 926.291C3937.71 914.489 3946.29 902.839 3953.04 890.117C3960.55 877.701 3966.53 864.978 3972.66 852.256L3990.9 814.088L4007.61 775.307C4018.95 749.556 4028.61 723.191 4039.03 696.98C4058.96 644.403 4077.2 591.521 4098.66 540.324C4120.12 489.281 4145.72 439.77 4181.59 398.537C4216.85 356.537 4263.6 325.574 4313.12 301.969C4337.49 289.093 4364.01 280.509 4389.91 271.159C4416.13 262.115 4443.41 256.137 4469.93 248.473L4468.09 240.502C4441.11 248.013 4413.67 253.991 4387.16 262.881C4360.79 272.232 4333.96 280.815 4308.98 293.691C4258.55 317.45 4210.41 348.873 4173.78 391.793C4136.53 434.099 4110.01 484.529 4088.09 536.032C4066.01 587.689 4047.46 640.571 4027.23 692.688C4016.81 718.593 4007 744.804 3995.5 770.402L3978.64 808.723L3960.24 846.431C3954.11 859 3948.13 871.723 3940.93 883.372C3934.49 895.635 3926.06 906.671 3917.93 917.861C3900.46 939.167 3880.84 959.094 3857.23 973.349C3833.93 987.911 3808.33 998.794 3781.66 1006C3754.83 1012.74 3727.4 1017.04 3699.65 1019.18C3644.16 1023.17 3588.21 1021.17 3532.26 1019.64C3476.31 1018.11 3420.05 1016.73 3363.79 1020.56C3307.69 1024.24 3251.43 1032.67 3197.17 1048.92C3142.9 1064.86 3090.94 1089.38 3043.88 1120.96C2996.82 1152.38 2953.59 1190.4 2918.48 1235.31C2883.23 1279.76 2854.1 1329.27 2832.95 1381.85C2811.49 1434.27 2795.39 1488.69 2782.82 1543.56C2758.45 1653.77 2746.8 1765.67 2733 1876.65C2726.11 1932.14 2718.29 1987.32 2707.41 2041.73C2696.37 2096 2682.42 2149.95 2659.73 2199.77C2637.35 2249.43 2605.77 2295.11 2563.31 2328.07C2521.16 2361.33 2469.04 2380.34 2415.69 2389.07L2395.61 2392.6C2388.87 2393.83 2381.97 2393.67 2375.23 2394.29L2334.3 2396.74L2293.06 2395.36L2272.52 2394.75L2251.98 2392.45C2197.56 2386.93 2141 2378.04 2085.05 2373.13C1972.69 2362.86 1859.25 2362.56 1746.58 2373.59C1521.4 2394.9 1300.97 2462.96 1100.77 2568.42C1000.98 2621.76 905.789 2683.84 817.188 2754.5C773.04 2789.91 730.273 2827.16 689.497 2866.55C648.722 2906.25 609.94 2946.72 573.764 2992.7V2992.09Z" fill="black" fill-opacity="0.1"/>
<path d="M781.012 3244.24L816.575 3268C847.233 3223.85 883.716 3180.78 920.965 3140.16C958.521 3099.39 998.223 3060.45 1039.46 3023.21C1122.08 2949.02 1211.76 2882.8 1306.49 2824.86C1496.72 2710.2 1708.57 2630.95 1928.54 2597.85C2038.45 2580.83 2149.89 2574.39 2261.18 2578.53C2316.98 2580.68 2371.7 2585.58 2429.34 2588.19C2443.59 2589.41 2458 2588.65 2472.26 2588.19C2486.67 2587.58 2500.92 2587.88 2515.33 2586.66C2544 2583.13 2572.82 2580.83 2601.02 2572.86C2657.43 2559.37 2712.92 2534.08 2756.46 2493.61C2800.45 2453.45 2830.65 2401.03 2850.42 2346.92C2870.35 2292.5 2881.7 2236.1 2889.05 2179.84C2896.57 2123.59 2900.86 2067.18 2904.69 2011.08C2911.89 1898.87 2917.11 1786.82 2935.65 1677.23C2944.54 1622.35 2958.34 1568.55 2976.89 1516.74C2981.95 1504.02 2986.09 1490.68 2992.06 1478.26L3009.69 1441.02C3023.34 1417.26 3036.37 1393.04 3053.38 1371.58C3118.07 1283.44 3211.58 1216.15 3315.35 1180.59C3367.32 1162.65 3421.74 1151.46 3477.07 1145.49C3532.26 1139.35 3588.21 1137.52 3644.31 1135.83C3700.42 1133.84 3757.13 1132.92 3813.7 1123.87C3841.9 1119.58 3870.26 1113.14 3897.39 1102.72C3924.53 1092.6 3950.89 1078.96 3973.43 1060.11C4020.03 1023.78 4048.69 969.21 4068.47 917.247C4090.54 865.131 4108.63 811.635 4125.95 757.986C4143.27 704.337 4158.91 650.534 4178.53 598.418C4198 546.455 4221.91 496.025 4255.79 452.799C4289.05 408.96 4333.66 374.931 4381.94 348.413C4405.55 334.004 4431.61 324.041 4457.06 313.004C4469.63 307.026 4483.27 303.654 4496.3 299.055L4536 286.026L4533.7 278.056L4493.69 290.931C4480.51 295.53 4466.71 298.902 4453.99 304.727C4428.08 315.61 4401.72 325.574 4377.5 340.135C4328.29 366.807 4282.15 401.295 4247.66 446.207C4212.56 490.353 4187.88 541.856 4167.8 594.279C4147.72 646.855 4131.62 700.811 4113.99 754C4096.52 807.343 4078.12 860.379 4055.9 911.729C4035.66 963.692 4008.38 1014.12 3964.23 1048.3C3942.92 1065.93 3917.94 1078.65 3892.03 1088.16C3866.12 1097.97 3838.84 1103.95 3811.25 1107.93C3756.06 1116.36 3699.96 1116.98 3643.85 1118.66C3587.75 1120.04 3531.34 1121.57 3475.23 1127.4C3419.13 1133.07 3363.18 1144.11 3309.37 1162.35C3201.77 1198.52 3104.73 1267.19 3036.52 1358.7C3018.74 1381.08 3004.94 1406.07 2990.53 1430.75L2972.14 1469.22C2966.01 1482.1 2961.56 1495.58 2956.35 1508.77C2936.88 1562.11 2922.47 1617.29 2912.97 1672.93C2893.35 1784.37 2887.52 1897.19 2879.55 2009.08C2875.41 2065.03 2870.81 2120.83 2862.99 2175.86C2855.33 2231.04 2843.99 2285.61 2824.83 2336.96C2805.66 2388.15 2777.46 2435.98 2737.45 2472C2697.75 2508.33 2647.16 2531.17 2594.28 2543.43C2568.06 2550.79 2540.47 2552.63 2513.34 2555.85C2499.7 2556.92 2485.75 2556.61 2472.11 2557.07C2458.31 2557.23 2444.51 2557.99 2430.72 2556.61C2375.99 2553.85 2318.97 2548.49 2262.56 2545.88C2149.43 2540.98 2035.84 2546.8 1923.63 2563.51C1699.06 2595.85 1481.85 2675.41 1286.71 2791.29C1189.53 2850 1097.4 2916.98 1012.48 2992.4C970.018 3030.1 929.243 3069.65 890.461 3111.34C851.678 3153.19 814.889 3195.8 781.165 3243.63L781.012 3244.24Z" fill="black" fill-opacity="0.1"/>
<path d="M1020.3 2759.71C1043.44 2783.78 1042.68 2821.95 1018.76 2845.09C994.697 2868.24 956.528 2867.62 933.228 2843.56C910.081 2819.65 910.694 2781.33 934.761 2758.18C958.827 2735.03 996.996 2735.8 1020.3 2759.87V2759.71Z" fill="#2E3090"/>
<path d="M795.574 2351.21C793.581 2352.75 792.048 2354.58 790.362 2356.42C748.82 2312.74 711.264 2273.34 685.512 2246.06C688.731 2191.8 687.964 2136.46 676.774 2084.96C641.518 1923.55 497.119 1847.83 458.796 1864.08C444.234 1870.21 441.168 1885.38 440.555 1895.35C430.744 1990.38 552.456 2131.71 627.415 2208.97C614.692 2325.15 598.29 2457.74 618.524 2537.76C654.241 2678.17 834.203 2760.94 978.909 2621.45C987.799 2612.87 995.311 2604.13 1002.06 2595.24C1016.92 2610.26 1029.34 2622.52 1037.77 2630.65C1089.89 2680.01 1115.49 2722.31 1115.8 2760.02C1116.1 2786.38 1104.61 2810.76 1080.54 2834.36C1080.08 2834.82 1079.62 2835.28 1079.16 2835.74C1012.63 2899.81 979.215 2804.32 976.303 2801.71L933.075 2844.02C933.841 2844.78 1006.04 2924.95 1088.36 2845.55C1088.82 2845.09 1089.28 2844.48 1089.74 2844.02C1116.1 2817.96 1129.29 2789.6 1128.98 2759.87C1128.52 2717.71 1102.31 2673.41 1046.66 2620.84C1037.77 2612.41 1025.05 2599.84 1009.41 2584.05C1105.22 2432.3 923.571 2251.43 795.114 2351.52L795.574 2351.21ZM594.458 1982.87C627.568 2031.77 636.766 2108.56 629.561 2188.58C619.904 2178.77 607.64 2166.05 594.458 2151.18C563.8 2114.54 528.083 2066.87 517.2 2040.2C491.294 1976.89 505.09 1950.99 505.09 1950.99C514.287 1931.83 541.419 1904.54 594.458 1982.87ZM965.112 2606.28C836.502 2708.98 712.644 2634.17 678.001 2538.52C655.62 2476.9 676.314 2373.44 684.285 2264.45C709.578 2291.13 743.762 2327.15 781.165 2366.23C699.768 2460.5 763.383 2577.92 820.407 2584.51C860.262 2589.11 871.452 2566.27 871.452 2566.27C809.37 2572.09 774.42 2483.19 833.13 2426.47C834.05 2425.55 835.123 2424.64 836.196 2423.72C890.46 2480.43 945.798 2537.76 986.726 2579.45C981.208 2588.49 974.923 2598.46 965.112 2606.28ZM993.318 2566.88C953.156 2525.96 899.964 2470.62 847.386 2415.9C923.111 2357.34 1033.63 2474.76 993.318 2566.88Z" fill="#2E3090"/>
<path d="M1590.99 1835.72C1544.09 1838.94 1496.72 1842.16 1449.36 1845.68C1406.59 1848.75 1341.13 1855.34 1298.52 1858.56C1276.9 1860.09 1276.6 1859.94 1273.68 1881.86C1257.44 2000.81 1248.24 2072.24 1231.99 2191.19C1225.25 2241.16 1193.51 2272.89 1142.32 2281.47C1117.94 2285.61 1094.8 2283.31 1075.17 2267.21C1054.63 2250.51 1050.19 2224.75 1065.06 2203.29C1091.58 2165.13 1129.75 2148.73 1175.43 2148.27C1189.22 2148.27 1200.72 2156.24 1213.6 2159.61C1218.65 2150.87 1218.04 2141.83 1219.27 2133.4C1236.44 2008.93 1246.25 1931.98 1263.26 1807.52C1263.87 1802.77 1264.49 1798.01 1265.25 1793.41C1268.17 1776.86 1269.24 1775.48 1286.56 1773.64C1309.4 1771.34 1332.39 1769.96 1355.39 1768.12C1398 1764.75 1463.46 1758.16 1506.23 1754.79C1542.56 1752.03 1579.04 1749.12 1615.37 1746.51C1628.09 1745.59 1630.39 1748.5 1629.47 1761.69C1629.16 1767.2 1628.09 1772.72 1627.32 1778.24C1607.7 1922.33 1592.99 2018.89 1576.43 2163.29C1569.69 2221.69 1501.47 2268.59 1437.25 2250.05C1401.53 2239.78 1388.35 2199.92 1410.88 2169.42C1438.32 2132.02 1492.28 2110.25 1537.65 2124.81C1555.13 2130.33 1555.74 2130.18 1558.19 2112.09C1568.92 2034.84 1572.29 2005.25 1582.87 1928C1586.4 1901.94 1589.92 1876.03 1593.45 1849.98C1594.06 1845.38 1595.29 1840.47 1591.3 1835.57L1590.99 1835.72Z" fill="#ED1C24"/>
<path d="M3161.76 845.97C3138.61 853.635 3115.62 861.605 3092.62 869.423C3065.64 878.62 3024.56 893.795 2997.58 902.992C2983.02 907.897 2968.46 912.649 2954.05 917.86C2943.17 921.846 2942.71 922.919 2943.63 934.108C2943.63 937.327 2944.24 940.393 2944.7 943.612C2954.36 1026.69 2960.64 1078.04 2970.14 1160.97C2970.76 1166.64 2972.6 1172.46 2970.76 1178.9C2961.87 1178.9 2953.13 1175.53 2944.24 1177.83C2914.81 1185.65 2892.89 1202.35 2882 1231.48C2876.02 1247.73 2883.08 1263.67 2899.17 1271.02C2914.65 1278.08 2929.83 1275.78 2944.85 1269.03C2976.43 1255.08 2991.76 1229.33 2987.93 1196.07C2978.73 1116.67 2972.75 1069.15 2963.71 989.597C2962.02 975.035 2962.17 975.035 2975.82 970.59C3002.8 961.546 3044.03 946.371 3071.01 937.327C3100.9 927.211 3130.95 917.4 3160.68 907.59C3164.06 910.196 3163.9 913.415 3164.36 916.481C3166.51 933.802 3168.5 951.123 3170.49 968.597C3176.47 1020.1 3179.23 1039.87 3185.06 1091.38C3186.44 1103.49 3186.13 1103.64 3173.87 1102.87C3142.14 1101.19 3110.86 1124.03 3099.37 1152.69C3089.86 1175.99 3104.89 1199.59 3129.72 1200.36C3174.33 1201.59 3210.5 1160.05 3205.14 1121.27C3191.95 1025.31 3185.36 960.78 3174.33 864.518C3173.87 860.839 3173.71 857.007 3172.95 853.481C3171.26 844.744 3169.42 843.365 3161.3 845.97H3161.76ZM3159.15 886.897L2962.33 954.035L2960.95 937.021L3158.08 870.342L3159.3 886.897H3159.15Z" fill="#ED1C24"/>
<path d="M2627.54 1640.9C2611.91 1604.26 2567.45 1496.66 2552.28 1459.56C2541.85 1434.12 2502.61 1340.77 2493.72 1319H2493.41C2492.8 1315.02 2489.12 1311.95 2485.14 1312.41C2481 1313.03 2478.08 1316.7 2478.54 1320.84C2478.54 1320.84 2478.54 1320.89 2478.54 1321V1321.46C2478.85 1322.38 2479.16 1323.29 2479.77 1324.06C2498.78 1370.81 2581.09 1568.09 2599.8 1613.15C2603.32 1621.89 2602.71 1624.8 2592.28 1626.49C2547.68 1633.69 2518.25 1653.47 2502.92 1694.55C2489.73 1731.95 2511.65 1759.08 2545.68 1753.71C2582.32 1748.04 2609.3 1729.96 2626.93 1698.53C2639.04 1677.23 2635.51 1659.6 2627.54 1641.05V1640.9ZM2574.35 1713.25C2543.39 1724.13 2514.41 1721.83 2509.66 1708.34C2504.91 1694.7 2526.06 1674.93 2557.03 1664.04C2587.99 1653.16 2616.96 1655.31 2621.72 1668.95C2626.47 1682.44 2605.31 1702.36 2574.35 1713.25Z" fill="#2E3090"/>
<path d="M3877.01 545.842C3874.4 513.039 3856.31 492.039 3826.88 479.777C3812.63 473.952 3762.81 452.339 3745.02 430.573C3743.95 428.733 3742.73 426.894 3741.19 425.361C3739.51 423.522 3737.36 424.135 3735.37 425.054C3733.22 425.974 3731.99 427.814 3732.61 430.113C3733.37 432.719 3734.29 435.171 3735.37 437.624C3742.73 455.251 3750.08 472.879 3757.59 490.353C3762.65 502.463 3767.71 514.572 3772.92 526.681C3785.8 557.338 3835.16 680.424 3848.19 711.081C3850.18 715.68 3850.33 717.979 3846.66 719.205C3845.74 719.665 3844.51 719.818 3843.13 720.125C3812.78 725.49 3793 739.132 3782.89 767.183C3774.3 792.781 3789.33 811.022 3812.47 807.036C3816 806.423 3819.37 805.657 3822.74 804.737C3834.39 801.365 3844.36 795.847 3852.63 788.029C3858.46 782.818 3863.21 776.38 3867.35 768.869C3867.5 768.716 3867.66 768.409 3867.81 768.102C3870.57 763.044 3871.95 758.139 3872.41 753.541C3873.33 745.263 3870.88 737.599 3867.35 729.628C3857.54 707.402 3816.15 602.71 3803.27 572.053C3804.65 571.593 3806.65 571.287 3809.1 570.98C3814.31 570.367 3819.68 569.754 3825.04 569.907C3859.99 570.98 3880.23 576.345 3889.27 608.841C3893.72 625.089 3893.1 629.688 3896.47 630.607C3900.61 631.527 3901.38 626.775 3900 610.374C3898.31 589.681 3890.5 573.739 3877.62 561.783C3878.08 558.564 3877.93 553.506 3877.16 545.535L3877.01 545.842ZM3849.57 544.769C3837.92 540.017 3802.66 524.689 3780.43 507.521C3781.81 507.214 3783.65 506.908 3786.11 506.448C3791.32 505.835 3796.68 505.222 3802.05 505.375C3837 506.295 3857.23 511.813 3866.12 544.309C3867.35 548.601 3868.12 552.28 3868.88 555.039C3863.06 551.053 3856.77 547.528 3849.57 544.615V544.769Z" fill="#2E3090"/>
<path d="M2661.11 2346.15C2646.7 2316.42 2605.77 2229.35 2591.98 2199.31C2582.47 2178.62 2546.3 2103.2 2538.17 2085.57H2537.87C2537.25 2082.2 2534.03 2079.9 2530.66 2080.51C2527.29 2081.13 2524.99 2084.35 2525.6 2087.72C2525.6 2087.72 2525.6 2088.03 2525.76 2088.03C2525.91 2088.79 2526.22 2089.56 2526.68 2090.02C2544.15 2127.88 2619.88 2287.6 2636.89 2324.08C2640.11 2331.13 2639.65 2333.58 2631.22 2335.42C2594.58 2343.24 2571.28 2360.56 2560.09 2395.05C2550.74 2426.47 2569.75 2447.93 2597.65 2442.26C2627.69 2436.13 2649.15 2420.19 2662.64 2393.52C2671.99 2375.43 2668.32 2361.02 2660.96 2346L2661.11 2346.15Z" fill="#ED1C24"/>
<path d="M4230.95 294.15C4235.09 261.501 4248.43 166.159 4253.18 133.509C4256.55 110.977 4267.44 28.0505 4270.2 8.89006H4269.89V8.73678C4271.27 5.67111 4269.89 1.99231 4266.67 0.612761C4263.45 -0.766789 4259.93 0.612761 4258.55 3.83171C4258.55 3.83171 4258.55 4.13828 4258.55 4.29156C4258.24 5.05798 4258.24 5.82439 4258.24 6.59081C4252.26 47.824 4228.35 223.027 4222.83 262.88C4221.76 270.545 4220.07 272.384 4211.79 269.165C4176.84 255.676 4147.72 257.516 4119.51 280.355C4094.53 301.661 4098.82 330.019 4125.18 340.442C4153.7 351.785 4180.37 350.099 4206.27 335.077C4223.9 325.114 4228.81 310.858 4230.8 294.304L4230.95 294.15Z" fill="#ED1C24"/>
<path d="M1980.2 1911.44C1938.35 1889.37 1896.5 1867.3 1854.5 1845.07C1850.97 1843.23 1847.6 1841.24 1844.54 1839.09C1841.47 1836.95 1841.47 1833.88 1842.85 1830.66C1844.23 1827.75 1846.07 1824.99 1849.9 1825.6C1852.97 1826.06 1856.03 1826.83 1858.95 1827.9C1899.41 1836.18 1976.21 1814.11 1997.83 1807.52C2042.59 1793.87 2082.75 1800.93 2116.32 1835.72C2133.03 1853.04 2136.71 1859.17 2131.04 1861.93C2126.44 1864.08 2122.76 1858.25 2102.52 1844C2062.21 1815.49 2034 1828.21 1993.38 1859.63C1987.25 1864.38 1981.58 1870.06 1976.37 1875.73C1966.56 1886.15 1966.86 1887.84 1979.12 1894.28C2006.72 1908.99 2015.3 1912.98 2043.05 1927.54C2078.3 1946.24 2181.62 1999.89 2217.34 2017.82C2235.43 2026.87 2249.53 2038.21 2253.82 2062.27C2260.57 2097.84 2251.52 2128.95 2227.15 2156.85C2204.61 2182.75 2170.43 2176.16 2156.33 2139.07C2141.77 2097.68 2151.42 2063.81 2180.85 2029.47C2187.75 2021.5 2186.37 2018.74 2178.1 2014.45C2134.71 1991.92 2023.27 1934.28 1980.04 1911.44H1980.2Z" fill="#2E3090"/>
</g>
<defs>
<clipPath id="clip0_1529_105">
<rect width="4536" height="3268" fill="white"/>
</clipPath>
</defs>
</svg>
