<?xml version="1.0" encoding="UTF-8"?>
<svg id="Layer_2" data-name="Layer 2" xmlns="http://www.w3.org/2000/svg" xmlns:xlink="http://www.w3.org/1999/xlink" viewBox="0 0 252.49 85.34">
  <defs>
    <style>
      .cls-1 {
        fill: url(#linear-gradient-75);
      }

      .cls-2 {
        fill: url(#linear-gradient-2);
      }

      .cls-3 {
        fill: url(#linear-gradient-51);
      }

      .cls-4 {
        fill: url(#linear-gradient-17);
      }

      .cls-5 {
        fill: url(#linear-gradient-87);
      }

      .cls-6 {
        fill: url(#linear-gradient-93);
      }

      .cls-7 {
        fill: url(#linear-gradient-92);
      }

      .cls-8 {
        fill: url(#linear-gradient-80);
      }

      .cls-9 {
        fill: url(#linear-gradient-43);
      }

      .cls-10 {
        fill: url(#linear-gradient-15);
      }

      .cls-11 {
        fill: url(#linear-gradient-58);
      }

      .cls-12 {
        fill: url(#linear-gradient-69);
      }

      .cls-13 {
        fill: url(#linear-gradient-81);
      }

      .cls-14 {
        fill: url(#linear-gradient-18);
      }

      .cls-15 {
        fill: url(#linear-gradient-56);
      }

      .cls-16 {
        fill: url(#linear-gradient-40);
      }

      .cls-17 {
        fill: url(#linear-gradient-52);
      }

      .cls-18 {
        fill: url(#linear-gradient-28);
      }

      .cls-19 {
        fill: url(#linear-gradient-14);
      }

      .cls-20 {
        fill: url(#linear-gradient-36);
      }

      .cls-21 {
        fill: url(#linear-gradient-78);
      }

      .cls-22 {
        fill: url(#linear-gradient-20);
      }

      .cls-23 {
        fill: url(#linear-gradient-6);
      }

      .cls-24 {
        fill: url(#linear-gradient-53);
      }

      .cls-25 {
        fill: url(#linear-gradient-91);
      }

      .cls-26 {
        fill: url(#linear-gradient-60);
      }

      .cls-27 {
        fill: url(#linear-gradient-84);
      }

      .cls-28 {
        fill: url(#linear-gradient-35);
      }

      .cls-29 {
        fill: url(#linear-gradient-48);
      }

      .cls-30 {
        fill: url(#linear-gradient-32);
      }

      .cls-31 {
        fill: url(#linear-gradient-97);
      }

      .cls-32 {
        fill: url(#linear-gradient-11);
      }

      .cls-33 {
        fill: url(#linear-gradient-50);
      }

      .cls-34 {
        fill: url(#linear-gradient-63);
      }

      .cls-35 {
        fill: url(#linear-gradient-67);
      }

      .cls-36 {
        fill: url(#linear-gradient-95);
      }

      .cls-37 {
        fill: url(#linear-gradient-86);
      }

      .cls-38 {
        fill: url(#linear-gradient-39);
      }

      .cls-39 {
        fill: url(#linear-gradient-10);
      }

      .cls-40 {
        fill: url(#linear-gradient-59);
      }

      .cls-41 {
        fill: url(#linear-gradient-49);
      }

      .cls-42 {
        fill: url(#linear-gradient-37);
      }

      .cls-43 {
        fill: url(#linear-gradient-82);
      }

      .cls-44 {
        fill: url(#linear-gradient-16);
      }

      .cls-45 {
        fill: url(#linear-gradient-31);
      }

      .cls-46 {
        fill: url(#linear-gradient-85);
      }

      .cls-47 {
        fill: url(#linear-gradient-61);
      }

      .cls-48 {
        fill: url(#linear-gradient-68);
      }

      .cls-49 {
        fill: url(#linear-gradient-62);
      }

      .cls-50 {
        fill: url(#linear-gradient-41);
      }

      .cls-51 {
        fill: url(#linear-gradient-76);
      }

      .cls-52 {
        fill: url(#linear-gradient-98);
      }

      .cls-53 {
        fill: url(#linear-gradient-21);
      }

      .cls-54 {
        fill: url(#linear-gradient-72);
      }

      .cls-55 {
        fill: url(#linear-gradient-25);
      }

      .cls-56 {
        fill: url(#linear-gradient-89);
      }

      .cls-57 {
        fill: url(#linear-gradient-5);
      }

      .cls-58 {
        fill: url(#linear-gradient-64);
      }

      .cls-59 {
        fill: url(#linear-gradient-83);
      }

      .cls-60 {
        fill: url(#linear-gradient-54);
      }

      .cls-61 {
        fill: url(#linear-gradient-45);
      }

      .cls-62 {
        fill: url(#linear-gradient-55);
      }

      .cls-63 {
        fill: url(#linear-gradient-34);
      }

      .cls-64 {
        fill: url(#linear-gradient-65);
      }

      .cls-65 {
        fill: url(#linear-gradient-70);
      }

      .cls-66 {
        fill: url(#linear-gradient-79);
      }

      .cls-67 {
        fill: url(#linear-gradient-88);
      }

      .cls-68 {
        fill: url(#linear-gradient-7);
      }

      .cls-69 {
        fill: url(#linear-gradient-66);
      }

      .cls-70 {
        fill: url(#linear-gradient-96);
      }

      .cls-71 {
        fill: url(#linear-gradient-24);
      }

      .cls-72 {
        fill: url(#linear-gradient-73);
      }

      .cls-73 {
        fill: url(#linear-gradient-100);
      }

      .cls-74 {
        fill: url(#linear-gradient-9);
      }

      .cls-75 {
        fill: url(#linear-gradient-22);
      }

      .cls-76 {
        fill: url(#linear-gradient-74);
      }

      .cls-77 {
        fill: url(#linear-gradient-42);
      }

      .cls-78 {
        fill: url(#linear-gradient-99);
      }

      .cls-79 {
        fill: url(#linear-gradient-3);
      }

      .cls-80 {
        fill: url(#linear-gradient);
      }

      .cls-81 {
        fill: url(#linear-gradient-27);
      }

      .cls-82 {
        fill: url(#linear-gradient-33);
      }

      .cls-83 {
        fill: url(#linear-gradient-38);
      }

      .cls-84 {
        fill: url(#linear-gradient-94);
      }

      .cls-85 {
        fill: url(#linear-gradient-29);
      }

      .cls-86 {
        fill: url(#linear-gradient-30);
      }

      .cls-87 {
        fill: url(#linear-gradient-23);
      }

      .cls-88 {
        fill: url(#linear-gradient-19);
      }

      .cls-89 {
        fill: url(#linear-gradient-71);
      }

      .cls-90 {
        fill: url(#linear-gradient-4);
      }

      .cls-91 {
        fill: url(#linear-gradient-77);
      }

      .cls-92 {
        fill: url(#linear-gradient-8);
      }

      .cls-93 {
        fill: url(#linear-gradient-90);
      }

      .cls-94 {
        fill: url(#linear-gradient-44);
      }

      .cls-95 {
        fill: url(#linear-gradient-57);
      }

      .cls-96 {
        fill: url(#linear-gradient-47);
      }

      .cls-97 {
        fill: url(#linear-gradient-46);
      }

      .cls-98 {
        fill: url(#linear-gradient-12);
      }

      .cls-99 {
        fill: url(#linear-gradient-13);
      }

      .cls-100 {
        fill: url(#linear-gradient-26);
      }
    </style>
    <linearGradient id="linear-gradient" x1="73.96" y1="68.47" x2="73.96" y2="12.96" gradientUnits="userSpaceOnUse">
      <stop offset=".3" stop-color="#121212"/>
      <stop offset=".5" stop-color="#17191a"/>
      <stop offset=".83" stop-color="#272c30"/>
      <stop offset="1" stop-color="#323940"/>
    </linearGradient>
    <linearGradient id="linear-gradient-2" x1="75.68" y1="68.47" x2="75.68" y2="12.96" xlink:href="#linear-gradient"/>
    <linearGradient id="linear-gradient-3" x1="179.71" y1="68.46" x2="179.71" y2="12.97" xlink:href="#linear-gradient"/>
    <linearGradient id="linear-gradient-4" x1="179.23" y1="68.47" x2="179.23" y2="12.96" gradientTransform="translate(25.35 -63.53) rotate(21.59)" xlink:href="#linear-gradient"/>
    <linearGradient id="linear-gradient-5" x1="129.48" y1="68.47" x2="129.48" y2="12.96" xlink:href="#linear-gradient"/>
    <linearGradient id="linear-gradient-6" x1="127.25" y1="68.47" x2="127.25" y2="12.96" xlink:href="#linear-gradient"/>
    <linearGradient id="linear-gradient-7" x1="126.45" y1="68.47" x2="126.45" y2="12.96" xlink:href="#linear-gradient"/>
    <linearGradient id="linear-gradient-8" x1="128.83" y1="68.47" x2="128.83" y2="12.96" xlink:href="#linear-gradient"/>
    <linearGradient id="linear-gradient-9" x1="129.97" y1="68.47" x2="129.97" y2="12.96" xlink:href="#linear-gradient"/>
    <linearGradient id="linear-gradient-10" x1="127.61" y1="68.46" x2="127.61" y2="12.96" xlink:href="#linear-gradient"/>
    <linearGradient id="linear-gradient-11" x1="46.66" y1="68.46" x2="46.66" y2="12.96" xlink:href="#linear-gradient"/>
    <linearGradient id="linear-gradient-12" x1="43.34" y1="68.47" x2="43.34" y2="12.96" xlink:href="#linear-gradient"/>
    <linearGradient id="linear-gradient-13" x1="41.95" y1="68.46" x2="41.95" y2="12.96" xlink:href="#linear-gradient"/>
    <linearGradient id="linear-gradient-14" x1="45.18" y1="68.46" x2="45.18" y2="12.96" xlink:href="#linear-gradient"/>
    <linearGradient id="linear-gradient-15" x1="43.52" y1="68.46" x2="43.52" y2="12.96" xlink:href="#linear-gradient"/>
    <linearGradient id="linear-gradient-16" x1="168.11" y1="68.47" x2="168.11" y2="12.97" xlink:href="#linear-gradient"/>
    <linearGradient id="linear-gradient-17" x1="164.79" y1="68.47" x2="164.79" y2="12.96" xlink:href="#linear-gradient"/>
    <linearGradient id="linear-gradient-18" x1="163.4" y1="68.46" x2="163.4" y2="12.97" xlink:href="#linear-gradient"/>
    <linearGradient id="linear-gradient-19" x1="166.63" y1="68.47" x2="166.63" y2="12.96" xlink:href="#linear-gradient"/>
    <linearGradient id="linear-gradient-20" x1="164.97" y1="68.47" x2="164.97" y2="12.96" xlink:href="#linear-gradient"/>
    <linearGradient id="linear-gradient-21" x1="84.71" y1="68.46" x2="84.71" y2="12.96" xlink:href="#linear-gradient"/>
    <linearGradient id="linear-gradient-22" x1="81.79" y1="68.47" x2="81.79" y2="12.96" xlink:href="#linear-gradient"/>
    <linearGradient id="linear-gradient-23" x1="82.83" y1="68.47" x2="82.83" y2="12.96" xlink:href="#linear-gradient"/>
    <linearGradient id="linear-gradient-24" x1="202.21" y1="68.47" x2="202.21" y2="12.96" xlink:href="#linear-gradient"/>
    <linearGradient id="linear-gradient-25" x1="200.21" y1="68.47" x2="200.21" y2="12.96" gradientTransform="translate(87.08 -126.07) rotate(43.83)" xlink:href="#linear-gradient"/>
    <linearGradient id="linear-gradient-26" x1="208.25" y1="68.46" x2="208.25" y2="12.97" xlink:href="#linear-gradient"/>
    <linearGradient id="linear-gradient-27" x1="206.18" y1="68.47" x2="206.18" y2="12.96" gradientTransform="translate(86.87 -130.88) rotate(43.81)" xlink:href="#linear-gradient"/>
    <linearGradient id="linear-gradient-28" x1="200.69" y1="68.47" x2="200.69" y2="12.96" xlink:href="#linear-gradient"/>
    <linearGradient id="linear-gradient-29" x1="94.35" y1="68.46" x2="94.35" y2="12.97" xlink:href="#linear-gradient"/>
    <linearGradient id="linear-gradient-30" x1="93.76" y1="68.47" x2="93.76" y2="12.96" xlink:href="#linear-gradient"/>
    <linearGradient id="linear-gradient-31" x1="97.75" y1="68.46" x2="97.75" y2="12.96" xlink:href="#linear-gradient"/>
    <linearGradient id="linear-gradient-32" x1="97.09" y1="68.47" x2="97.09" y2="12.96" xlink:href="#linear-gradient"/>
    <linearGradient id="linear-gradient-33" x1="94.21" y1="68.47" x2="94.21" y2="12.96" xlink:href="#linear-gradient"/>
    <linearGradient id="linear-gradient-34" x1="94.69" y1="68.47" x2="94.69" y2="12.96" xlink:href="#linear-gradient"/>
    <linearGradient id="linear-gradient-35" x1="205.5" y1="68.47" x2="205.5" y2="12.96" xlink:href="#linear-gradient"/>
    <linearGradient id="linear-gradient-36" x1="203.52" y1="68.47" x2="203.52" y2="12.96" gradientTransform="translate(78.26 -136.34) rotate(45.05)" xlink:href="#linear-gradient"/>
    <linearGradient id="linear-gradient-37" x1="208.8" y1="68.47" x2="208.8" y2="12.96" xlink:href="#linear-gradient"/>
    <linearGradient id="linear-gradient-38" x1="206.67" y1="68.47" x2="206.67" y2="12.96" gradientTransform="translate(75.23 -140.08) rotate(45.01)" xlink:href="#linear-gradient"/>
    <linearGradient id="linear-gradient-39" x1="202.5" y1="68.47" x2="202.5" y2="12.96" xlink:href="#linear-gradient"/>
    <linearGradient id="linear-gradient-40" x1="205.27" y1="68.47" x2="205.27" y2="12.96" gradientTransform="translate(126.68 -169.67) rotate(61.73)" xlink:href="#linear-gradient"/>
    <linearGradient id="linear-gradient-41" x1="139.95" y1="68.46" x2="139.95" y2="12.96" xlink:href="#linear-gradient"/>
    <linearGradient id="linear-gradient-42" x1="137.18" y1="68.47" x2="137.18" y2="12.96" gradientTransform="translate(133.39 -79.3) rotate(58.71)" xlink:href="#linear-gradient"/>
    <linearGradient id="linear-gradient-43" x1="141.9" y1="68.47" x2="141.9" y2="12.97" xlink:href="#linear-gradient"/>
    <linearGradient id="linear-gradient-44" x1="138.95" y1="68.47" x2="138.95" y2="12.96" gradientTransform="translate(129.12 -83.71) rotate(58.73)" xlink:href="#linear-gradient"/>
    <linearGradient id="linear-gradient-45" x1="134.93" y1="68.47" x2="134.93" y2="12.96" xlink:href="#linear-gradient"/>
    <linearGradient id="linear-gradient-46" x1="136.22" y1="68.47" x2="136.22" y2="12.96" gradientTransform="translate(164.68 -77.97) rotate(71.77)" xlink:href="#linear-gradient"/>
    <linearGradient id="linear-gradient-47" x1="26.37" y1="68.46" x2="26.37" y2="12.96" xlink:href="#linear-gradient"/>
    <linearGradient id="linear-gradient-48" x1="27.38" y1="68.47" x2="27.38" y2="12.96" xlink:href="#linear-gradient"/>
    <linearGradient id="linear-gradient-49" x1="35.18" y1="68.46" x2="35.18" y2="12.96" xlink:href="#linear-gradient"/>
    <linearGradient id="linear-gradient-50" x1="36.24" y1="68.47" x2="36.24" y2="12.96" xlink:href="#linear-gradient"/>
    <linearGradient id="linear-gradient-51" x1="43.15" y1="68.47" x2="43.15" y2="12.96" xlink:href="#linear-gradient"/>
    <linearGradient id="linear-gradient-52" x1="44.18" y1="68.47" x2="44.18" y2="12.96" gradientTransform="translate(.95 -4.76) rotate(6.23)" xlink:href="#linear-gradient"/>
    <linearGradient id="linear-gradient-53" x1="35.25" y1="68.47" x2="35.25" y2="12.96" xlink:href="#linear-gradient"/>
    <linearGradient id="linear-gradient-54" x1="151.86" y1="68.46" x2="151.86" y2="12.97" xlink:href="#linear-gradient"/>
    <linearGradient id="linear-gradient-55" x1="151.2" y1="68.47" x2="151.2" y2="12.96" xlink:href="#linear-gradient"/>
    <linearGradient id="linear-gradient-56" x1="157.42" y1="68.46" x2="157.42" y2="12.97" xlink:href="#linear-gradient"/>
    <linearGradient id="linear-gradient-57" x1="156.79" y1="68.47" x2="156.79" y2="12.96" xlink:href="#linear-gradient"/>
    <linearGradient id="linear-gradient-58" x1="162.35" y1="68.46" x2="162.35" y2="12.96" xlink:href="#linear-gradient"/>
    <linearGradient id="linear-gradient-59" x1="161.71" y1="68.47" x2="161.71" y2="12.96" xlink:href="#linear-gradient"/>
    <linearGradient id="linear-gradient-60" x1="154.99" y1="68.47" x2="154.99" y2="12.96" xlink:href="#linear-gradient"/>
    <linearGradient id="linear-gradient-61" x1="224.61" y1="68.46" x2="224.61" y2="12.96" xlink:href="#linear-gradient"/>
    <linearGradient id="linear-gradient-62" x1="229.47" y1="68.47" x2="229.47" y2="12.96" xlink:href="#linear-gradient"/>
    <linearGradient id="linear-gradient-63" x1="227.37" y1="68.47" x2="227.37" y2="12.96" xlink:href="#linear-gradient"/>
    <linearGradient id="linear-gradient-64" x1="228.71" y1="68.47" x2="228.71" y2="12.96" xlink:href="#linear-gradient"/>
    <linearGradient id="linear-gradient-65" x1="96" y1="68.46" x2="96" y2="12.96" xlink:href="#linear-gradient"/>
    <linearGradient id="linear-gradient-66" x1="99.88" y1="68.46" x2="99.88" y2="12.96" xlink:href="#linear-gradient"/>
    <linearGradient id="linear-gradient-67" x1="98.13" y1="68.47" x2="98.13" y2="12.96" xlink:href="#linear-gradient"/>
    <linearGradient id="linear-gradient-68" x1="99.27" y1="68.47" x2="99.27" y2="12.96" xlink:href="#linear-gradient"/>
    <linearGradient id="linear-gradient-69" x1="145.97" y1="68.47" x2="145.97" y2="12.96" xlink:href="#linear-gradient"/>
    <linearGradient id="linear-gradient-70" x1="145.97" y1="68.47" x2="145.97" y2="12.96" xlink:href="#linear-gradient"/>
    <linearGradient id="linear-gradient-71" x1="147.05" y1="68.47" x2="147.05" y2="12.96" xlink:href="#linear-gradient"/>
    <linearGradient id="linear-gradient-72" x1="145.78" y1="68.47" x2="145.78" y2="12.96" xlink:href="#linear-gradient"/>
    <linearGradient id="linear-gradient-73" x1="147.36" y1="68.47" x2="147.36" y2="12.96" gradientTransform="translate(47.7 -61.36) rotate(27.9)" xlink:href="#linear-gradient"/>
    <linearGradient id="linear-gradient-74" x1="147.36" y1="68.47" x2="147.36" y2="12.96" gradientTransform="translate(47.7 -61.36) rotate(27.9)" xlink:href="#linear-gradient"/>
    <linearGradient id="linear-gradient-75" x1="111.9" y1="68.47" x2="111.9" y2="12.96" gradientTransform="translate(14.17 -22.73) rotate(12.38)" xlink:href="#linear-gradient"/>
    <linearGradient id="linear-gradient-76" x1="111.9" y1="68.47" x2="111.9" y2="12.96" gradientTransform="translate(14.17 -22.73) rotate(12.38)" xlink:href="#linear-gradient"/>
    <linearGradient id="linear-gradient-77" x1="114.08" y1="68.47" x2="114.08" y2="12.96" gradientTransform="translate(13.91 -23.24) rotate(12.38)" xlink:href="#linear-gradient"/>
    <linearGradient id="linear-gradient-78" x1="113.03" y1="68.47" x2="113.03" y2="12.96" xlink:href="#linear-gradient"/>
    <linearGradient id="linear-gradient-79" x1="113.13" y1="68.47" x2="113.13" y2="12.96" xlink:href="#linear-gradient"/>
    <linearGradient id="linear-gradient-80" x1="113.13" y1="68.47" x2="113.13" y2="12.96" xlink:href="#linear-gradient"/>
    <linearGradient id="linear-gradient-81" x1="181.92" y1="68.47" x2="181.92" y2="12.96" xlink:href="#linear-gradient"/>
    <linearGradient id="linear-gradient-82" x1="181.92" y1="68.47" x2="181.92" y2="12.96" xlink:href="#linear-gradient"/>
    <linearGradient id="linear-gradient-83" x1="183" y1="68.47" x2="183" y2="12.96" xlink:href="#linear-gradient"/>
    <linearGradient id="linear-gradient-84" x1="181.73" y1="68.47" x2="181.73" y2="12.96" xlink:href="#linear-gradient"/>
    <linearGradient id="linear-gradient-85" x1="183.32" y1="68.47" x2="183.32" y2="12.96" xlink:href="#linear-gradient"/>
    <linearGradient id="linear-gradient-86" x1="183.32" y1="68.47" x2="183.32" y2="12.96" xlink:href="#linear-gradient"/>
    <linearGradient id="linear-gradient-87" x1="20.31" y1="68.47" x2="20.31" y2="12.96" xlink:href="#linear-gradient"/>
    <linearGradient id="linear-gradient-88" x1="14.49" y1="68.47" x2="14.49" y2="12.96" xlink:href="#linear-gradient"/>
    <linearGradient id="linear-gradient-89" x1="194.69" y1="68.47" x2="194.69" y2="12.96" xlink:href="#linear-gradient"/>
    <linearGradient id="linear-gradient-90" x1="191.81" y1="68.46" x2="191.81" y2="12.96" xlink:href="#linear-gradient"/>
    <linearGradient id="linear-gradient-91" x1="60.19" y1="68.47" x2="60.19" y2="12.96" xlink:href="#linear-gradient"/>
    <linearGradient id="linear-gradient-92" x1="105.05" y1="68.47" x2="105.05" y2="12.96" xlink:href="#linear-gradient"/>
    <linearGradient id="linear-gradient-93" x1="108.57" y1="68.47" x2="108.57" y2="12.96" xlink:href="#linear-gradient"/>
    <linearGradient id="linear-gradient-94" x1="112.72" y1="68.47" x2="112.72" y2="12.96" xlink:href="#linear-gradient"/>
    <linearGradient id="linear-gradient-95" x1="114.96" y1="68.47" x2="114.96" y2="12.96" xlink:href="#linear-gradient"/>
    <linearGradient id="linear-gradient-96" x1="116.97" y1="68.47" x2="116.97" y2="12.96" xlink:href="#linear-gradient"/>
    <linearGradient id="linear-gradient-97" x1="120.73" y1="68.47" x2="120.73" y2="12.96" xlink:href="#linear-gradient"/>
    <linearGradient id="linear-gradient-98" x1="126.02" y1="68.47" x2="126.02" y2="12.96" xlink:href="#linear-gradient"/>
    <linearGradient id="linear-gradient-99" x1="134.48" y1="68.47" x2="134.48" y2="12.96" xlink:href="#linear-gradient"/>
    <linearGradient id="linear-gradient-100" x1="135.4" y1="68.47" x2="135.4" y2="12.96" xlink:href="#linear-gradient"/>
  </defs>
  <g id="Layer_1-2" data-name="Layer 1">
    <g>
      <g>
        <g>
          <path class="cls-80" d="m75.84,18.79c.35.78-.22,1.79-1.26,2.25-1.04.46-2.17.2-2.51-.58-.34-.78.22-1.79,1.26-2.25,1.05-.46,2.17-.2,2.51.58Z"/>
          <rect class="cls-2" x="75.55" y="8.55" width=".27" height="10.8"/>
        </g>
        <g>
          <path class="cls-79" d="m181.16,39.14c.61.6.46,1.74-.34,2.56-.8.81-1.94.99-2.55.39-.61-.6-.46-1.74.34-2.56.8-.81,1.94-.98,2.55-.39Z"/>
          <rect class="cls-90" x="179.1" y="29.3" width=".27" height="10.8" transform="translate(-.19 68.4) rotate(-21.59)"/>
        </g>
        <g>
          <path class="cls-57" d="m130.64,61.48c.71.48.76,1.64.12,2.57-.64.94-1.73,1.32-2.44.84-.7-.48-.76-1.63-.12-2.57.64-.94,1.73-1.32,2.44-.84Z"/>
          <path class="cls-23" d="m130.74,62.09s-.09-.02-.11-.06l-6.97-11.23c-.04-.06-.02-.14.04-.18.06-.04.14-.02.18.04l6.97,11.23c.04.06.02.14-.04.18-.02.01-.05.02-.07.02Z"/>
          <path class="cls-68" d="m129.13,52.9c-.06,0-.12-.04-.13-.11-.27-1.35-1.85-1.38-2.84-1.38-.05,0-.09,0-.13,0-.07,0-.13,0-.19,0-1.32-.02-1.77-.21-2.17-.59-.05-.05-.06-.13,0-.19.05-.05.13-.06.19,0,.3.28.63.5,1.99.52.08,0,.16,0,.25,0h.07c1.01,0,2.79.03,3.1,1.59.01.07-.03.14-.1.16,0,0-.02,0-.03,0Z"/>
          <path class="cls-92" d="m131.51,56.66c-.06,0-.12-.04-.13-.11-.28-1.38-1.91-1.38-2.92-1.38-.09,0-.17,0-.25,0-1.32-.01-1.77-.21-2.17-.59-.05-.05-.06-.13,0-.19.05-.05.13-.06.19,0,.3.28.64.5,1.99.52.08,0,.16,0,.25,0,.98,0,2.85,0,3.17,1.59.01.07-.03.14-.1.16,0,0-.02,0-.03,0Z"/>
          <path class="cls-74" d="m132.65,58.52c-.06,0-.12-.04-.13-.11-.27-1.38-1.93-1.38-2.91-1.38-.09,0-.17,0-.25,0-1.32-.01-1.77-.21-2.17-.59-.05-.05-.06-.13,0-.19.05-.05.13-.06.19,0,.31.29.65.5,2,.52h.24c.98,0,2.86,0,3.17,1.59.01.07-.03.14-.1.16,0,0-.02,0-.03,0Z"/>
          <path class="cls-39" d="m130.29,54.72c-.06,0-.12-.04-.13-.11-.3-1.51-2.25-1.37-3.16-1.38-1.32-.01-1.76-.21-2.17-.59-.05-.05-.06-.13,0-.19.05-.05.14-.06.19,0,.3.28.64.5,1.99.51.08,0,.16,0,.26,0,1,0,2.85,0,3.16,1.6.01.07-.03.14-.1.16,0,0-.02,0-.03,0Z"/>
        </g>
        <g>
          <path class="cls-32" d="m47.91,43.13c.91.52,1.07,1.91.38,3.12-.69,1.2-1.99,1.76-2.89,1.24-.9-.52-1.07-1.92-.38-3.12.69-1.2,1.99-1.76,2.89-1.24Z"/>
          <path class="cls-98" d="m48.08,43.82s-.08-.02-.11-.05l-9.48-13.03c-.04-.06-.03-.14.03-.19.06-.04.14-.03.19.03l9.48,13.03c.04.06.03.14-.03.19-.02.02-.05.03-.08.03Z"/>
          <path class="cls-99" d="m45.3,32.8c-.06,0-.11-.04-.13-.1-.47-1.68-2.49-1.52-3.7-1.43-.1,0-.2.02-.29.02-1.6.1-2.15-.1-2.67-.52-.06-.05-.07-.13-.02-.19.05-.06.13-.07.19-.02.39.32.82.55,2.48.46.09,0,.18-.01.29-.02,1.21-.09,3.46-.26,3.98,1.63.02.07-.02.14-.09.16-.01,0-.02,0-.04,0Z"/>
          <path class="cls-19" d="m48.53,37.16c-.06,0-.11-.04-.13-.1-.46-1.68-2.49-1.52-3.7-1.43-.1,0-.2.02-.29.02-1.59.1-2.15-.1-2.67-.52-.06-.05-.07-.13-.02-.19.05-.06.13-.07.19-.02.39.32.83.56,2.48.46.09,0,.19-.01.29-.02,1.21-.09,3.46-.26,3.98,1.63.02.07-.02.14-.09.16-.01,0-.02,0-.04,0Z"/>
          <path class="cls-10" d="m46.87,34.91c-.06,0-.11-.04-.13-.1-.46-1.67-2.49-1.52-3.7-1.43-.11,0-.2.02-.29.02-1.6.1-2.15-.1-2.67-.51-.06-.05-.07-.13-.02-.19.05-.06.13-.07.19-.02.39.32.83.56,2.48.45.09,0,.19-.01.29-.02,1.21-.09,3.46-.26,3.98,1.63.02.07-.02.14-.09.16-.01,0-.02,0-.04,0Z"/>
        </g>
        <g>
          <path class="cls-44" d="m169.37,74.3c.91.52,1.07,1.92.38,3.12-.69,1.2-1.99,1.76-2.89,1.24-.9-.52-1.07-1.92-.38-3.12.69-1.2,1.99-1.76,2.89-1.24Z"/>
          <path class="cls-4" d="m169.53,75s-.08-.02-.11-.05l-9.48-13.02c-.04-.06-.03-.14.03-.19.06-.04.14-.03.19.03l9.48,13.02c.04.06.03.14-.03.19-.02.02-.05.03-.08.03Z"/>
          <path class="cls-14" d="m166.75,63.98c-.06,0-.11-.04-.13-.1-.47-1.68-2.5-1.52-3.71-1.43-.1,0-.2.02-.29.02-1.6.1-2.15-.1-2.67-.52-.06-.05-.06-.13-.02-.19.05-.06.13-.07.19-.02.39.32.82.56,2.48.46.09,0,.18-.01.28-.02,1.21-.09,3.46-.27,3.98,1.62.02.07-.02.14-.09.16-.01,0-.02,0-.04,0Z"/>
          <path class="cls-88" d="m169.98,68.33c-.06,0-.11-.04-.13-.1-.47-1.68-2.49-1.52-3.7-1.43-.1,0-.2.02-.29.02-1.6.1-2.15-.1-2.67-.51-.06-.05-.07-.13-.02-.19.05-.06.13-.07.19-.02.4.32.83.56,2.48.46.09,0,.19-.01.29-.02,1.21-.09,3.45-.26,3.98,1.63.02.07-.02.14-.09.16-.01,0-.02,0-.04,0Z"/>
          <path class="cls-22" d="m168.32,66.08c-.06,0-.11-.04-.13-.1-.46-1.67-2.49-1.52-3.7-1.43-.11,0-.21.02-.3.02-1.6.1-2.15-.1-2.67-.51-.06-.05-.07-.13-.02-.19.05-.06.13-.07.19-.02.4.32.83.55,2.48.45.09,0,.19-.01.29-.02,1.21-.09,3.45-.26,3.97,1.63.02.07-.02.14-.09.16-.01,0-.02,0-.04,0Z"/>
        </g>
        <g>
          <path class="cls-53" d="m82.69,30.41c-.17-.84.6-1.7,1.72-1.92,1.12-.22,2.16.28,2.33,1.12.16.84-.6,1.7-1.72,1.92-1.12.22-2.16-.28-2.32-1.12Z"/>
          <path class="cls-75" d="m80.61,40.61s-.02,0-.03,0c-.07-.02-.12-.09-.1-.16l2.37-10.54c.02-.07.09-.12.16-.1.07.02.12.09.1.16l-2.37,10.54c-.01.06-.07.1-.13.1Z"/>
          <path class="cls-87" d="m80.63,40.54s-.04,0-.06-.02c-.07-.03-.09-.11-.06-.18.25-.48.61-.81,1.85-1.27l.23-.08c.94-.32,2.5-.87,2.3-2.26-.01-.07.04-.14.11-.15.07-.01.14.04.15.11.23,1.61-1.53,2.22-2.48,2.55l-.22.08c-1.27.47-1.52.78-1.7,1.14-.02.05-.07.07-.12.07Z"/>
        </g>
        <g>
          <g>
            <path class="cls-71" d="m202.77,47.53c.56.23.77,1.02.46,1.77-.31.74-1.01,1.17-1.57.94-.56-.23-.76-1.02-.46-1.77.3-.75,1.01-1.17,1.57-.94Z"/>
            <rect class="cls-55" x="200.08" y="41.35" width=".27" height="7.66" transform="translate(24.5 151.25) rotate(-43.83)"/>
          </g>
          <g>
            <path class="cls-100" d="m208.8,44.99c.56.23.77,1.02.46,1.77-.3.75-1.01,1.17-1.57.94-.56-.23-.77-1.02-.46-1.77.3-.75,1.01-1.17,1.57-.94Z"/>
            <rect class="cls-81" x="206.05" y="38.75" width=".27" height="7.66" transform="translate(27.92 154.59) rotate(-43.81)"/>
          </g>
          <polygon class="cls-18" points="204.22 40.16 198.26 43.58 197.15 42.4 203.21 39.04 204.22 40.16"/>
        </g>
        <g>
          <g>
            <g>
              <path class="cls-85" d="m95.01,35.94c.34.34.33.94-.04,1.34-.36.4-.93.47-1.27.13-.34-.33-.32-.94.04-1.34.36-.41.93-.46,1.28-.13Z"/>
              <polygon class="cls-86" points="94.92 36.4 92.37 30.96 92.61 30.85 95.16 36.29 94.92 36.4"/>
            </g>
            <g>
              <path class="cls-45" d="m98.41,33.52c.34.34.32.94-.04,1.34-.36.41-.94.46-1.27.12-.34-.33-.33-.94.04-1.34.36-.41.93-.46,1.27-.12Z"/>
              <polygon class="cls-30" points="98.25 33.83 95.7 28.39 95.94 28.28 98.49 33.71 98.25 33.83"/>
            </g>
            <polygon class="cls-82" points="92.64 31.69 96.35 29.01 95.79 27.83 92.06 30.46 92.64 31.69"/>
          </g>
          <polygon class="cls-63" points="93.05 32.17 92.89 31.95 96.34 29.5 96.49 29.71 93.05 32.17"/>
        </g>
        <g>
          <g>
            <g>
              <path class="cls-28" d="m206.03,28.38c.57.22.79,1.01.5,1.76-.29.75-.99,1.19-1.55.97-.57-.22-.79-1.01-.5-1.76.3-.75.99-1.19,1.55-.97Z"/>
              <rect class="cls-20" x="203.39" y="22.35" width=".27" height="7.66" transform="translate(41.2 151.71) rotate(-45.05)"/>
            </g>
            <g>
              <path class="cls-42" d="m209.32,23.1c.56.21.79,1,.49,1.75-.29.76-.98,1.19-1.55.97-.56-.22-.79-1.01-.49-1.76.29-.75.98-1.19,1.55-.97Z"/>
              <rect class="cls-83" x="206.53" y="16.91" width=".27" height="7.66" transform="translate(45.89 152.24) rotate(-45.01)"/>
            </g>
            <polygon class="cls-38" points="201.33 24.39 204.9 18.58 203.73 17.4 200.11 23.17 201.33 24.39"/>
          </g>
          <rect class="cls-16" x="203.85" y="20.93" width="2.85" height=".4" transform="translate(89.45 191.92) rotate(-61.73)"/>
        </g>
        <g>
          <g>
            <g>
              <path class="cls-50" d="m140.14,80.46c.6.08,1,.79.9,1.59-.1.8-.67,1.39-1.27,1.31-.6-.08-1.01-.79-.91-1.59.11-.8.68-1.39,1.28-1.31Z"/>
              <rect class="cls-77" x="137.05" y="75.09" width=".27" height="7.66" transform="translate(-1.5 155.17) rotate(-58.71)"/>
            </g>
            <g>
              <path class="cls-9" d="m142.09,74.55c.6.08,1,.79.9,1.59-.11.8-.68,1.39-1.28,1.31-.6-.08-1-.79-.9-1.59.1-.8.68-1.39,1.28-1.31Z"/>
              <rect class="cls-94" x="138.82" y="69.06" width=".27" height="7.66" transform="translate(4.52 153.82) rotate(-58.73)"/>
            </g>
            <polygon class="cls-61" points="134.63 77.7 136.72 71.2 135.3 70.34 133.15 76.8 134.63 77.7"/>
          </g>
          <rect class="cls-97" x="133.06" y="74.7" width="6.32" height=".27" transform="translate(22.53 180.8) rotate(-71.77)"/>
        </g>
        <g>
          <g>
            <path class="cls-96" d="m28.28,18.6c.46.79-.02,1.93-1.08,2.54-1.06.62-2.28.47-2.74-.32-.46-.79.02-1.93,1.07-2.54,1.06-.61,2.29-.47,2.75.32Z"/>
            <polygon class="cls-29" points="27.88 19.12 26.62 7.62 26.89 7.59 28.15 19.09 27.88 19.12"/>
          </g>
          <g>
            <path class="cls-41" d="m37.09,15.15c.46.79-.02,1.93-1.08,2.54-1.06.61-2.29.47-2.74-.32-.46-.79.02-1.93,1.08-2.54,1.06-.61,2.29-.47,2.74.32Z"/>
            <polygon class="cls-33" points="36.73 15.68 35.47 4.18 35.74 4.16 37 15.65 36.73 15.68"/>
          </g>
          <g>
            <path class="cls-3" d="m45.06,11.56c.46.79-.02,1.93-1.08,2.54-1.06.61-2.28.47-2.75-.32-.46-.79.02-1.93,1.08-2.55,1.05-.61,2.28-.47,2.74.32Z"/>
            <rect class="cls-17" x="44.05" y=".59" width=".27" height="11.57" transform="translate(-.43 4.84) rotate(-6.23)"/>
          </g>
          <polygon class="cls-24" points="26.55 9.47 44.22 2.81 43.92 0 26.28 7.04 26.55 9.47"/>
        </g>
        <g>
          <g>
            <path class="cls-60" d="m152.99,54.06c.51.46.41,1.39-.21,2.06-.62.67-1.53.84-2.04.37-.5-.47-.41-1.39.21-2.06.62-.67,1.54-.83,2.04-.37Z"/>
            <polygon class="cls-62" points="152.81 54.52 149.39 46.55 149.58 46.47 153 54.44 152.81 54.52"/>
          </g>
          <g>
            <path class="cls-15" d="m158.55,49.65c.5.47.41,1.39-.22,2.06-.62.67-1.53.84-2.04.37-.5-.47-.41-1.39.22-2.06.62-.67,1.54-.84,2.04-.37Z"/>
            <polygon class="cls-95" points="158.41 50.12 154.99 42.15 155.17 42.07 158.59 50.04 158.41 50.12"/>
          </g>
          <g>
            <path class="cls-11" d="m163.47,45.34c.5.47.41,1.39-.22,2.06-.62.67-1.53.84-2.04.37-.5-.47-.41-1.39.22-2.06.62-.67,1.53-.83,2.04-.37Z"/>
            <polygon class="cls-40" points="163.33 45.83 159.91 37.86 160.09 37.79 163.51 45.75 163.33 45.83"/>
          </g>
          <polygon class="cls-26" points="149.74 47.89 160.95 39.25 160.12 37.3 149.02 46.21 149.74 47.89"/>
        </g>
        <g>
          <path class="cls-47" d="m225.81,33.61c.6.66.54,1.68-.13,2.27-.67.6-1.68.54-2.28-.12-.59-.66-.54-1.68.12-2.28.66-.59,1.68-.54,2.28.12Z"/>
          <path class="cls-49" d="m234.29,39.29l-6.92-7.71c.18,1.48-.03,2.61-.62,3.38-.5.65-1.26,1.03-2.25,1.11l-.02-.26c.92-.08,1.61-.42,2.07-1.01.61-.78.78-2,.51-3.61,0-.06.02-.12.07-.14.05-.03.12-.01.16.03l7.21,8.03-.2.18Z"/>
          <path class="cls-34" d="m228.57,36.68c.6.66.54,1.68-.13,2.27-.66.59-1.67.54-2.27-.12-.59-.66-.54-1.68.13-2.27.67-.59,1.68-.54,2.27.12Z"/>
          <path class="cls-58" d="m227.25,39.15l-.02-.26c.92-.08,1.61-.42,2.07-1.01.6-.78.78-2,.51-3.61l.26-.04c.28,1.69.09,2.98-.56,3.82-.5.65-1.26,1.03-2.26,1.12Z"/>
        </g>
        <g>
          <path class="cls-64" d="m97.03,44.9c.46.57.37,1.41-.2,1.87-.57.46-1.4.37-1.86-.2-.46-.57-.37-1.4.19-1.86.57-.46,1.4-.37,1.87.2Z"/>
          <path class="cls-69" d="m103.74,49.95l-5.31-6.58c.07,1.19-.15,2.1-.67,2.7-.45.52-1.09.8-1.92.83v-.27c.74-.03,1.32-.28,1.72-.74.53-.61.72-1.6.57-2.93,0-.06.03-.11.08-.14.05-.02.12,0,.15.04l5.58,6.92-.21.17Z"/>
          <path class="cls-35" d="m99.16,47.55c.46.57.37,1.4-.2,1.86-.57.46-1.4.37-1.86-.2-.46-.57-.37-1.4.19-1.86.57-.46,1.41-.37,1.87.2Z"/>
          <path class="cls-48" d="m97.97,49.55v-.27c.74-.03,1.32-.27,1.72-.73.53-.61.72-1.6.57-2.93l.26-.03c.16,1.41-.06,2.46-.63,3.14-.44.51-1.1.8-1.92.83Z"/>
        </g>
        <g>
          <polygon class="cls-12" points="149.86 69.61 141.89 61.42 142.08 61.24 150.05 69.43 149.86 69.61"/>
          <polygon class="cls-65" points="149.86 69.61 141.89 61.42 142.08 61.24 150.05 69.43 149.86 69.61"/>
          <polygon class="cls-89" points="150.94 67.21 142.97 59.02 143.16 58.84 151.13 67.03 150.94 67.21"/>
          <polygon class="cls-54" points="142.89 64.62 142.76 64.38 148.67 61.28 148.79 61.52 142.89 64.62"/>
          <rect class="cls-72" x="144.03" y="65.2" width="6.67" height=".27" transform="translate(-13.44 76.55) rotate(-27.9)"/>
          <rect class="cls-76" x="144.03" y="65.2" width="6.67" height=".27" transform="translate(-13.44 76.55) rotate(-27.9)"/>
        </g>
        <g>
          <rect class="cls-1" x="111.77" y="48.27" width=".26" height="11.43" transform="translate(-8.97 25.24) rotate(-12.38)"/>
          <rect class="cls-51" x="111.77" y="48.27" width=".26" height="11.43" transform="translate(-8.97 25.24) rotate(-12.38)"/>
          <rect class="cls-91" x="113.95" y="46.8" width=".26" height="11.42" transform="translate(-8.61 25.68) rotate(-12.38)"/>
          <polygon class="cls-21" points="116.35 52.15 109.7 51.67 109.72 51.41 116.37 51.88 116.35 52.15"/>
          <polygon class="cls-66" points="116.44 55.01 109.79 54.54 109.81 54.27 116.46 54.75 116.44 55.01"/>
          <polygon class="cls-8" points="116.44 55.01 109.79 54.54 109.81 54.27 116.46 54.75 116.44 55.01"/>
        </g>
        <g>
          <polygon class="cls-13" points="185.81 58.69 177.85 50.49 178.04 50.31 186 58.5 185.81 58.69"/>
          <polygon class="cls-43" points="185.81 58.69 177.85 50.49 178.04 50.31 186 58.5 185.81 58.69"/>
          <polygon class="cls-59" points="186.89 56.28 178.93 48.1 179.12 47.91 187.08 56.1 186.89 56.28"/>
          <polygon class="cls-27" points="178.84 53.69 178.72 53.46 184.61 50.36 184.74 50.59 178.84 53.69"/>
          <polygon class="cls-46" points="180.43 56.08 180.31 55.84 186.2 52.74 186.33 52.97 180.43 56.08"/>
          <polygon class="cls-37" points="180.43 56.08 180.31 55.84 186.2 52.74 186.33 52.97 180.43 56.08"/>
        </g>
        <g>
          <path class="cls-5" d="m21.28,63.52c-.1.04-.19.07-.29.09-.59.18-1.21.11-1.74-.13-.02,0-.02-.02-.02,0-.32-.15-.61-.37-.84-.64-.04-.03-.07-.07-.09-.11-.08-.09-.14-.18-.19-.28,0-.01,0-.01,0-.01-.06-.09-.11-.2-.15-.3-.55-1.3.08-2.79,1.38-3.33,1.07-.45,2.29-.1,2.98.77.03.03.05.07.07.11.12.15.21.32.29.5.54,1.3-.09,2.8-1.39,3.34Z"/>
          <path class="cls-67" d="m18.55,45.87c-.91-1.26-1.85-2.57-2.79-3.92-.28.2-.55.39-.82.58.93,1.36,1.83,2.68,2.71,3.96.22.33.44.65.67.97.3-.22.6-.43.91-.64-.22-.31-.45-.63-.68-.95Zm-5.73-1.83c-.43.31-.85.62-1.27.93.59,1.32,1.38,2.23,1.99,2.82.46.44.84.73,1.12.92.2.14.33.23.38.26-.09-.12-.48-.64-1.02-1.56-.44-.8-.98-1.95-1.2-3.37Zm14.5,3.39c1.29-1.97,1.93-4.38,1.56-6.66,0-.03,0-.05,0-.08,0-.02-.01-.05-.01-.07-.3-2-1.26-3.83-2.59-5.26-.03-.03-.07-.07-.1-.1-.15-.17-.31-.32-.47-.47-1.63-1.51-3.78-2.43-5.97-2.44-.14,0-.29,0-.42.02-.12,0-.24,0-.36.01-1.83.15-3.54.9-4.81,1.95-.85.69-1.52,1.47-2.02,2.3-.27-.4-.54-.81-.81-1.22-.52-.78-1.03-1.58-1.53-2.4.35-.87.68-1.76.92-2.67.03-.08.05-.17.07-.25.05-.17.09-.34.13-.51.6-2.25.77-4.66.34-6.97,0-.05-.01-.1-.03-.15-.09-.51-.22-1.01-.38-1.51-.5-1.52-1.04-3.04-1.74-4.44-.02-.04-.04-.08-.07-.13-.55-1.09-1.22-2.1-2.05-2.97-.46-.55-.89-.84-1.66-1.47-.14-.11-.35-.28-.6-.46-.03-.03-.07-.06-.11-.09-.2-.14-.43-.28-.66-.4-.54-.28-1.4-.33-2.09.05-1.33.86-1.6,2.02-1.77,2.84v.03c-.01.05-.02.11-.02.16-.05.37-.06.7-.06,1.06,0,.24.02.38.03.53v.13c.02.12.02.11.03.17l.05.29c.25,1.5.88,2.74,1.48,3.92.07.14.15.28.21.42.03.04.05.08.07.12.49.96.98,1.92,1.47,2.87.46.96.94,1.9,1.44,2.81.02.05.04.09.07.13.41.77.84,1.53,1.28,2.27-.26,1.02-.59,2.04-.98,3.04l-.71,1.81c-.13.32-.26.67-.39,1.04-.03.08-.06.17-.08.26-.08.21-.15.43-.22.66-.86,2.58-1.3,5.31-1.07,8.11,0,.06,0,.13,0,.19.01.07.01.15.02.22.18,2.07.93,4.17,2.18,5.87.03.04.06.08.1.11.49.66,1.07,1.26,1.72,1.76,1.06.84,2.24,1.44,3.45,1.82.05.02.09.04.14.05,1.41.43,2.87.59,4.26.54,2.58-.14,4.99-.83,7.12-1.96.03.04.06.09.1.14.03.04.06.09.08.13.66.95,1.28,1.88,1.85,2.77.56.73.97,1.49,1.23,2.25.02.04.03.09.04.13.59,1.78.36,3.53-.56,4.65-1.03,1.16-2.39,1.4-3.43,1.23-.45-.06-.83-.2-1.11-.37-.51-.28-.81-.58-.99-.81-.03-.04-.06-.08-.08-.12-.11-.16-.16-.26-.18-.26l-.53.38s0,0,0,.01c.03.03.09.13.21.26.02.03.05.07.09.11.18.18.44.42.82.66,0,0,.01,0,.02,0,.12.07.26.15.4.22.59.28,1.39.51,2.33.46.95-.07,2.04-.4,2.99-1.25.96-.83,1.57-2.28,1.48-3.8-.03-.7-.16-1.43-.46-2.11-.01-.05-.03-.09-.05-.13,0,0,0-.03-.02-.04-.37-.78-.77-1.41-1.21-2.11-.59-.92-1.22-1.86-1.89-2.83-.03-.04-.06-.09-.09-.13,0-.01,0-.02-.02-.03,1.82-1.14,3.4-2.61,4.61-4.3ZM5.79,25.91s-.04-.09-.07-.14c-.44-.88-.86-1.78-1.27-2.69-.47-1.06-.83-2.17-1.07-3.31,0-.05-.02-.1-.03-.15-.13-.65-.22-1.3-.27-1.96-.09-1.08-.55-3.94,1.09-4.12,1.04-.11,1.71,1.07,2.06,1.87.29.68.52,1.39.69,2.11.02.05.03.1.04.15.28,1.23.38,2.51.28,3.77-.1,1.23-.23,2.44-.41,3.63,0,.07-.01.13-.03.19-.09.66-.2,1.32-.33,1.97-.23-.43-.46-.87-.68-1.32Zm8.79,26.24c-.65-.04-1.3-.14-1.93-.3-.05,0-.1,0-.15-.03-1.5-.37-2.9-1.05-3.97-2.08-.48-.46-.88-.98-1.19-1.54-.04-.04-.07-.08-.08-.13-.69-1.23-1.03-2.66-1.02-4.16,0-1.01.16-2.04.41-3.07.01-.08.03-.16.06-.24.28-1.17.69-2.33,1.16-3.46.22-.52.46-1.07.77-1.68l.41-.84c.1-.2.21-.4.3-.61.4.64.8,1.27,1.2,1.9.29.44.57.88.85,1.31.04.05.07.1.1.14.04.07.08.13.12.19-.85,1.82-1.01,3.74-.75,5.25.14.75.36,1.43.61,2.02.02.05.04.1.07.15.59,1.32,1.38,2.23,1.99,2.82.46.44.84.73,1.12.92.2.14.33.23.38.26-.09-.12-.48-.64-1.02-1.56-.44-.8-.98-1.95-1.2-3.37,0-.06-.02-.13-.02-.19-.06-.38-.09-.78-.08-1.2,0-.84.16-1.77.51-2.67.55.82,1.09,1.62,1.62,2.41.03.05.06.09.09.14.93,1.36,1.83,2.68,2.71,3.96.22.33.44.65.67.97.02.04.04.08.07.11.83,1.21,1.65,2.37,2.42,3.49-1.95.83-4.11,1.24-6.23,1.09Zm7.31-1.61c-.82-1.17-1.69-2.37-2.58-3.62-.03-.03-.05-.07-.08-.1-.22-.31-.45-.63-.68-.95-.91-1.26-1.85-2.57-2.79-3.92-.03-.04-.07-.08-.09-.13-.66-.92-1.31-1.87-1.97-2.84.51-.91,1.22-1.76,2.16-2.42,2.1-1.49,5.25-1.81,8.11-.04.05.03.1.06.14.09.03.02.07.04.1.06,1.45.94,2.71,2.43,3.25,4.31.04.13.07.27.1.41,0,.05.02.1.02.15.32,1.73-.11,3.67-1.25,5.22-1.1,1.54-2.65,2.84-4.44,3.78Z"/>
        </g>
        <g>
          <path class="cls-56" d="m195.05,28.28c.19.2.17.52-.03.7-.2.19-.51.17-.7-.03-.18-.2-.17-.51.03-.7.21-.18.51-.17.7.03Z"/>
          <path class="cls-93" d="m194.44,28.89s.08.1.31.14c.21.04.61-.06.77-.46.13-.38-.08-.91-.6-1.23-.49-.38-1.07-.77-1.69-1.21-.62-.45-1.3-.93-1.99-1.46-.69-.54-1.44-1.09-2.13-1.77-.18-.16-.36-.33-.55-.5-.19-.17-.38-.36-.53-.62l-.03-.05s0,0-.02-.03v-.02s-.03-.06-.04-.1c-.03-.08-.05-.15-.07-.23-.02-.16-.05-.39.14-.64.1-.11.26-.16.37-.14.12.02.25.06.31.08.18.06.28.09.4.16.48.24.86.68,1.2,1.12.35.45.54,1.01.58,1.57.03.28.03.56.02.83,0,.07-.01.14-.02.21l-.02.18c-.02.13-.02.25-.03.36-.02.46,0,.93.15,1.34.15.41.42.74.8.91.38.17.84.16,1.26.04.85-.24,1.56-.97,1.78-1.76.11-.4.05-.83-.17-1.13-.22-.3-.55-.49-.88-.57-.66-.16-1.24.11-1.54.53-.29.43-.3.95-.16,1.32.13.38.38.63.55.78.18.15.29.22.29.22,0,0-.03,0-.09-.03-.06-.01-.15-.04-.26-.09-.22-.1-.56-.3-.81-.73-.25-.42-.35-1.12.03-1.76.18-.31.5-.59.89-.73.4-.14.85-.12,1.25.05.4.17.76.46.97.86.22.4.27.88.17,1.33-.26.89-.92,1.68-1.88,2.09-.47.19-1.04.26-1.59.08-.55-.18-1-.63-1.24-1.15-.25-.51-.36-1.07-.37-1.62,0-.14,0-.28,0-.41v-.37c.02-.23,0-.46-.02-.69-.06-.45-.15-.89-.28-1.34-.1-.39-.31-.74-.58-1.03-.11-.12-.32-.29-.5-.2-.29.14-.01.63.08.82.15.33.36.64.61.9.66.68,1.36,1.28,2.07,1.8.7.52,1.37,1,2.01,1.43.63.43,1.21.83,1.7,1.2.13.1.24.19.36.31.11.11.19.24.25.38.12.27.1.58-.02.79-.12.22-.3.35-.46.42-.17.07-.33.08-.45.07-.26-.03-.38-.14-.37-.13l.07-.11Z"/>
        </g>
        <path class="cls-25" d="m65.07,30.49c-7.59.45-4.31-7.96-4.31-7.96-1.8.46-3.84.55-4.45-2.4-.67-3.23,2.98-7.46-1-8.47,0,0,4.07-2.48,4.71,3.13.41,3.54-2.13,5.84,2.58,6.44,0,0-2.07,7.11,2.47,9.25Z"/>
      </g>
      <g>
        <path class="cls-7" d="m210.04,15.06c-5.48,1.04-12.02,4.42-19.13,8.8-.08.05-.15.1-.23.15-.05.03-.11.06-.16.1-.18.1-.35.21-.53.33-3.76,2.34-7.67,4.95-11.66,7.63-.08.05-.15.1-.23.15-.29.19-.57.39-.86.58-4.97,3.34-10.05,6.74-15.07,9.83-.05.03-.11.07-.17.1-1.75,1.08-3.49,2.11-5.22,3.09-.06.03-.11.06-.17.1-1.92,1.07-3.82,2.09-5.7,3.01-.08.04-.15.08-.23.11-.06.03-.12.06-.18.09-7.2,3.48-13.26,5.2-18.37,5.2-.61,0-1.21-.02-1.8-.08-.1,0-.2,0-.3-.03-.87-.07-1.7-.21-2.51-.41-.68-.17-1.36-.36-2.04-.58-.13-.04-.27-.09-.4-.14-9.31-3.17-17.89-11.26-26.87-19.97-.18-.17-.36-.34-.54-.51-.2-.2-.41-.4-.61-.6-.53-.52-1.06-1.03-1.6-1.55-.07-.07-.13-.13-.2-.19-.09-.1-.18-.18-.27-.27-.32-.31-.64-.62-.96-.92-5.78-5.59-11.72-11.1-18.21-15.62-.09-.06-.18-.13-.27-.19-5.97-4.13-12.4-7.42-19.59-9.15-4.03-.97-7.97-1.52-11.79-1.73-.09,0-.19-.02-.29,0-.09-.02-.18-.02-.27-.02-1.87-.09-3.7-.1-5.51-.04-13.58.47-25.26,4.93-33.39,9.16-1.71.88-3.27,1.76-4.65,2.59,0-.05,0-.11.02-.16,1.35-.81,2.86-1.66,4.52-2.52C12.81,7.12,24.66,2.59,38.45,2.18c1.68-.05,3.4-.04,5.14.05.09,0,.19,0,.28.01.09,0,.19,0,.29.02,3.83.2,7.79.76,11.83,1.73,6.49,1.57,12.92,4.57,19.56,9.14.09.06.18.13.27.19.83.58,1.67,1.18,2.51,1.81,5.62,4.2,10.81,9.04,15.82,13.87.32.31.64.61.95.92.1.09.19.18.28.26.07.07.13.13.19.19.53.52,1.06,1.03,1.59,1.54.12.11.23.23.35.33.18.18.35.35.53.52,9.01,8.75,17.62,16.92,26.93,20.15.13.05.27.1.4.14.72.24,1.45.45,2.18.63.77.19,1.57.32,2.4.41.1,0,.21.02.32.02,5.46.49,12.1-1.2,20.17-5.11.06-.02.12-.05.19-.08.07-.04.15-.07.22-.11,1.88-.92,3.78-1.94,5.7-3.02.06-.03.11-.06.17-.1,1.73-.97,3.47-2.01,5.22-3.08.06-.03.12-.07.17-.1,5.02-3.08,10.09-6.48,15.06-9.82.3-.2.6-.4.89-.59.08-.06.15-.11.22-.15,4.01-2.69,7.93-5.31,11.71-7.66.14-.09.29-.18.43-.27.06-.04.11-.07.16-.1.11-.07.22-.13.32-.2,7.1-4.37,13.63-7.75,19.12-8.79l.02.13Z"/>
        <path class="cls-6" d="m215.34,18.28c-2.74.33-5.64,1.14-8.64,2.31-.09.03-.19.06-.28.1-.29.11-.58.23-.87.35-.19.08-.38.16-.58.24-.79.34-1.59.7-2.4,1.09-.72.33-1.45.69-2.19,1.07-1.9.96-3.83,2.03-5.78,3.18,0,0,0,0-.01,0-.04.02-.09.05-.14.08-.07.04-.14.08-.22.13-.61.36-1.22.72-1.83,1.09-4.13,2.51-8.33,5.29-12.51,8.1-.07.05-.14.1-.22.15-.84.57-1.68,1.13-2.52,1.7-4.48,3.02-9,6.07-13.47,8.86-.69.43-1.37.85-2.06,1.26-1,.61-2,1.2-2.99,1.77-.05.03-.09.05-.13.08-.06.03-.11.06-.17.09-.79.46-1.58.9-2.36,1.32-1.19.65-2.37,1.26-3.55,1.84-.06.03-.12.06-.18.1-6.24,3.04-12.22,5.01-17.64,5.01-.64,0-1.26-.03-1.88-.09-.11,0-.21-.01-.31-.02-.86-.09-1.7-.23-2.53-.44-.68-.17-1.35-.36-2.01-.57-.14-.04-.27-.09-.4-.13-4.92-1.66-9.54-4.55-14.07-8.13-.1-.09-.21-.17-.32-.26-4.59-3.66-9.1-8.02-13.71-12.49-.37-.36-.75-.72-1.12-1.08-.41-.4-.82-.8-1.23-1.19-.89-.86-1.78-1.71-2.67-2.56-.06-.06-.13-.12-.19-.18-.09-.09-.18-.17-.27-.26-.33-.31-.66-.62-.99-.92-5.34-5-10.91-9.8-17.08-13.69-.09-.06-.18-.12-.27-.17-4.96-3.11-10.3-5.64-16.21-7.22-5.09-1.36-10.1-1.94-14.97-1.92-.09,0-.18,0-.27,0-2.72.01-5.39.22-8,.57-.09,0-.18.02-.27.04-3.01.42-5.93,1.03-8.75,1.81-.09.01-.18.04-.27.07,0,0-.03,0-.04,0-.08.02-.15.04-.22.06-6.48,1.8-12.38,4.37-17.46,7.06-.73.38-1.44.77-2.13,1.16-1.26.7-2.45,1.4-3.58,2.1-.52.31-1.02.63-1.51.94-.02-.04-.04-.08-.07-.12.5-.32,1.02-.65,1.55-.97,1.13-.69,2.32-1.4,3.57-2.1.68-.38,1.38-.76,2.1-1.14,5.09-2.69,11.01-5.26,17.51-7.07.09-.03.18-.06.27-.07.09-.03.17-.06.26-.07.34-.1.69-.2,1.04-.28,2.5-.64,5.08-1.17,7.72-1.53.09-.02.18-.03.27-.04,2.61-.35,5.28-.56,8-.57.09,0,.18,0,.27,0,4.88-.01,9.92.57,15.02,1.94,5.43,1.46,10.76,3.83,16.17,7.2.09.05.18.11.27.16,1.82,1.16,3.65,2.42,5.5,3.8,4.11,3.08,7.97,6.48,11.69,9.96.33.3.66.61.98.92.09.08.18.17.27.26.07.05.13.12.2.19.89.83,1.77,1.68,2.65,2.52.42.4.83.8,1.24,1.2.38.36.75.72,1.12,1.08,4.57,4.42,9.02,8.74,13.56,12.37.1.09.21.17.32.26,4.51,3.58,9.11,6.49,14,8.16.14.05.27.1.41.14.71.23,1.43.44,2.15.62.8.2,1.61.34,2.43.42.11.02.21.03.32.03,5.9.56,12.54-1.49,19.52-4.91.06-.02.13-.06.19-.09,1.2-.58,2.4-1.21,3.62-1.88.76-.41,1.52-.84,2.29-1.28.06-.03.11-.06.17-.1.03-.01.07-.03.1-.05.97-.56,1.95-1.14,2.93-1.72.74-.46,1.5-.92,2.25-1.4,4.43-2.76,8.91-5.78,13.35-8.78.84-.57,1.69-1.14,2.54-1.71.07-.05.15-.1.22-.16,4.11-2.76,8.24-5.5,12.31-7.97.32-.2.63-.39.95-.58.34-.2.67-.4,1.01-.59.01,0,.01-.02.02-.02.07-.04.13-.08.2-.11.14-.09.29-.18.43-.26,1.86-1.08,3.7-2.1,5.52-3.02.81-.41,1.62-.81,2.42-1.18.79-.38,1.58-.73,2.36-1.05.19-.09.39-.17.58-.24.23-.1.45-.19.68-.28.09-.03.18-.07.27-.11,3.04-1.17,5.97-1.99,8.74-2.33v.13Z"/>
        <path class="cls-84" d="m220.65,21.51c-3.48.24-7.07,1.1-10.72,2.42-.76.27-1.52.56-2.29.87-1.22.5-2.45,1.04-3.68,1.64-.09.03-.17.07-.26.12-7.3,3.48-14.78,8.36-22.18,13.38-1.07.72-2.14,1.45-3.21,2.18-.22.15-.44.3-.66.45-8.42,5.75-16.37,11.18-24.04,14.91-3.05,1.48-5.87,2.61-8.5,3.37-.1.03-.19.06-.29.08-.84.24-1.66.44-2.46.6-.1.03-.2.05-.3.06-1.72.34-3.35.51-4.9.51-1.72,0-3.35-.2-4.91-.6-.67-.17-1.34-.36-2-.57-.13-.05-.27-.09-.4-.14-5.38-1.79-10.31-4.92-15.09-8.75-.12-.09-.24-.19-.36-.29-.15-.12-.29-.24-.44-.37-.11-.08-.22-.16-.32-.27-.92-.74-1.84-1.53-2.75-2.34-.11-.09-.22-.19-.34-.31-2.95-2.61-5.88-5.44-8.86-8.31-2.78-2.68-5.58-5.39-8.48-8.02,0,0,0-.01,0-.01-.02,0-.03-.02-.04-.03-.07-.06-.14-.12-.2-.18-.09-.08-.17-.16-.26-.23h-.01v-.02s-.07-.06-.11-.09c-5.12-4.6-10.54-8.93-16.65-12.41-.04-.02-.07-.05-.11-.06-.09-.06-.18-.11-.27-.16-.55-.31-1.11-.61-1.67-.9-3.48-1.83-7.17-3.38-11.16-4.56-1.08-.32-2.17-.6-3.27-.83h0c-1.05-.24-2.11-.43-3.19-.58-3.62-.56-7.35-.7-11.18-.47-.07,0-.13.01-.19.02-.09,0-.18,0-.27.01-1.03.07-2.06.17-3.1.3-1.6.2-3.21.46-4.84.79-.09,0-.18.03-.27.05-2.86.58-5.76,1.37-8.69,2.36-.09.03-.18.06-.27.09-5.33,1.81-10.75,4.28-16.21,7.39-1.48.83-2.96,1.72-4.44,2.65-.33.22-.67.43-1.01.65-.31.2-.62.4-.94.61-.03-.04-.05-.08-.07-.13.31-.2.62-.41.94-.62.36-.23.73-.46,1.11-.7,1.36-.85,2.83-1.73,4.38-2.61,2.86-1.63,6.02-3.26,9.41-4.74,2.3-1.01,4.57-1.89,6.82-2.66.08-.03.17-.06.26-.09,2.94-.99,5.84-1.78,8.69-2.37.09-.02.18-.04.27-.06,1.7-.34,3.37-.6,5.03-.8.98-.12,1.95-.21,2.92-.27.09,0,.17-.02.26-.02.04,0,.07,0,.11,0,3.71-.23,7.33-.1,10.85.41,1.19.17,2.37.39,3.54.64,1.14.25,2.27.54,3.39.87,4.05,1.19,7.81,2.77,11.33,4.64.49.26.98.52,1.46.79.09.05.18.1.27.16.03.01.06.03.09.05,6.06,3.44,11.44,7.71,16.52,12.26.05.03.09.07.13.11.08.07.16.14.24.21.09.08.17.16.26.23v.02c.08.06.15.12.22.18,2.9,2.63,5.72,5.35,8.51,8.04,2.99,2.88,5.92,5.72,8.89,8.36.05.04.1.09.16.13.91.82,1.83,1.6,2.75,2.36.11.1.21.19.32.27.24.2.48.4.72.59.12.1.25.2.37.29,4.67,3.73,9.49,6.78,14.74,8.56.13.05.27.1.4.14.71.23,1.42.44,2.14.62,3.06.78,6.3.75,9.67.11.1,0,.2-.03.31-.06.81-.16,1.63-.35,2.46-.59.1-.02.2-.05.3-.08,9.97-2.87,21.04-10.42,32.55-18.29.21-.15.43-.29.64-.44,1.1-.74,2.19-1.49,3.29-2.24,7.37-4.99,14.82-9.85,22.09-13.33.09-.04.17-.08.26-.12,1.27-.61,2.54-1.17,3.8-1.68.75-.31,1.5-.59,2.25-.86,3.66-1.32,7.25-2.18,10.74-2.42v.14Z"/>
        <path class="cls-36" d="m225.95,24.73c-6.42.19-12.88,2.12-19.32,5.07-.69.32-1.38.65-2.06.99-8.76,4.29-17.47,10.33-26.03,16.25-9.87,6.83-19.4,13.43-28.24,16.72-.25.1-.5.19-.75.28-.33.12-.66.23-.99.34-.1.03-.19.06-.29.09-.8.26-1.6.48-2.39.67-.1.03-.2.06-.3.07-2.05.49-4.05.75-6,.75-1.7,0-3.35-.2-4.97-.61-1.33-.34-2.62-.76-3.89-1.24-.95-.36-1.89-.76-2.81-1.2-4.3-2.01-8.28-4.77-12.14-7.94-.12-.09-.24-.19-.36-.29-.3-.25-.59-.5-.89-.75-.11-.09-.22-.18-.33-.28-.69-.58-1.37-1.18-2.05-1.8-.11-.09-.22-.19-.33-.29-.13-.11-.26-.23-.39-.35-.12-.1-.23-.2-.34-.31-2.35-2.13-4.69-4.38-7.05-6.66-2.99-2.88-6.01-5.79-9.17-8.58-.17-.16-.33-.31-.5-.45-6.05-5.34-12.62-10.29-20.46-13.97-.61-.29-1.22-.57-1.85-.84-1.9-.83-3.88-1.58-5.95-2.24-1.98-.64-4.02-1.13-6.11-1.46-1.07-.18-2.15-.32-3.24-.41-13.83-1.26-29.63,3.57-46.05,14.05-.6.39-1.21.79-1.82,1.2-.25.16-.51.33-.76.51-1.38.91-2.76,1.88-4.15,2.89.02-.09.05-.18.08-.26,1.2-.87,2.53-1.81,3.97-2.78.25-.17.5-.34.76-.52.64-.42,1.3-.85,1.99-1.29,3.74-2.38,8.09-4.87,12.89-7.1,11.9-5.54,23-7.84,33.13-6.86,1.09.1,2.16.24,3.22.43,2.09.34,4.14.84,6.14,1.48,2.02.65,3.97,1.38,5.84,2.19.72.31,1.44.63,2.14.97,7.67,3.63,14.13,8.48,20.09,13.71.17.14.33.29.5.44,3.24,2.87,6.34,5.85,9.4,8.8,2.32,2.23,4.61,4.43,6.91,6.53.11.1.23.21.34.32.22.19.44.39.66.58.11.1.21.19.32.29.59.53,1.19,1.05,1.79,1.56.11.1.22.19.33.28.39.33.78.66,1.17.98.12.1.24.21.37.3,3.79,3.11,7.71,5.82,11.95,7.8.93.44,1.88.84,2.84,1.2,1.25.48,2.53.89,3.84,1.23,3.44.89,7.07.77,10.84-.11.1-.02.2-.05.3-.07.79-.19,1.59-.42,2.39-.67.09-.03.19-.06.28-.09,9.32-3.02,19.48-10.06,30.01-17.35,8.56-5.92,17.28-11.95,26.03-16.25.72-.36,1.43-.7,2.15-1.03,6.43-2.94,12.88-4.87,19.3-5.06v.14Z"/>
        <path class="cls-70" d="m231.25,27.81v.14h-.1c-17.55,0-34.62,11.58-49.81,22.25-.08.05-.15.1-.22.16-.47.33-.94.65-1.4.98-.13.09-.27.19-.4.28-.08.06-.15.11-.23.16-5.35,3.77-10.51,7.38-15.5,10.37-.16.1-.32.2-.48.29-.58.35-1.16.68-1.73,1-.08.05-.16.1-.24.13-1.32.75-2.63,1.45-3.93,2.08-2.79,1.37-5.39,2.4-7.83,3.09-.1.03-.2.06-.29.08-2.48.69-4.8,1.02-7,1.02-1.78,0-3.48-.22-5.12-.65-8.45-2.22-15.33-7.01-21.9-12.74-.11-.1-.22-.2-.33-.3-.51-.45-1.01-.9-1.52-1.36-.11-.1-.21-.19-.32-.29-.32-.29-.64-.58-.95-.87-.12-.11-.23-.21-.34-.32-.58-.53-1.15-1.07-1.73-1.62-.06-.05-.11-.11-.17-.16-1.11-1.05-2.21-2.11-3.33-3.18-3.79-3.64-7.63-7.31-11.79-10.8-.37-.31-.74-.61-1.12-.91-2.36-1.94-4.83-3.8-7.45-5.53-.96-.65-1.94-1.27-2.95-1.88-4.09-2.46-8.56-4.64-13.58-6.39-2.67-.92-5.45-1.55-8.34-1.89-1.55-.18-3.12-.27-4.72-.28-11.24-.11-23.84,3.86-37.12,11.7-2.33,1.36-4.68,2.85-7.05,4.47-.14.09-.28.19-.43.29-.11.07-.22.15-.33.23-1.61,1.1-3.23,2.26-4.85,3.48-1.32.98-2.64,2-3.96,3.06,0-.06,0-.13,0-.19,1.14-.9,2.49-1.96,4.03-3.11,1.42-1.06,2.98-2.2,4.69-3.38.2-.13.4-.27.61-.42.05-.03.1-.06.15-.1,2.09-1.41,4.36-2.88,6.79-4.32,2.31-1.37,4.76-2.71,7.32-3.98,10.85-5.38,20.92-8.02,30.11-7.91,1.45,0,2.88.09,4.28.25,3.07.33,6.02.99,8.87,1.98,5.03,1.75,9.52,3.93,13.63,6.41,1.01.61,2,1.24,2.96,1.88,2.6,1.72,5.04,3.56,7.38,5.48.41.32.81.66,1.21.99,4.15,3.47,7.98,7.15,11.76,10.78,1.11,1.06,2.21,2.12,3.3,3.15.11.1.21.2.31.3.5.46.99.93,1.48,1.38.11.11.23.21.34.32.4.37.81.74,1.21,1.1.11.11.21.2.32.29.42.39.84.76,1.26,1.13.11.1.22.2.33.29,6.6,5.78,13.5,10.61,21.98,12.84,3.81,1,7.81.76,11.96-.37.1-.02.19-.05.29-.08,3.82-1.07,7.76-2.88,11.81-5.16.08-.04.16-.08.23-.13.49-.27.99-.56,1.48-.85.17-.1.34-.2.51-.3,5.1-3.03,10.36-6.71,15.72-10.48.07-.05.15-.11.22-.16.14-.1.29-.2.43-.3.46-.32.92-.65,1.38-.97.07-.05.14-.1.22-.15,7.52-5.3,15.3-10.66,23.34-14.82,9.74-5.03,18.42-7.48,26.56-7.48h.1Z"/>
        <path class="cls-31" d="m236.56,31.03v.14c-.45-.02-.89-.02-1.33-.02-2.49,0-4.95.2-7.38.57-.1.02-.21.03-.31.05-.05.01-.1.01-.15.03-.09,0-.18.02-.27.04-7.97,1.33-15.61,4.49-22.9,8.51-.08.04-.16.08-.24.13-1.76.96-3.49,1.98-5.2,3.03-.08.05-.16.1-.23.14-4.92,3.03-9.67,6.33-14.25,9.6-.07.05-.15.1-.22.15-.6.43-1.2.86-1.8,1.28-.07.06-.14.11-.21.16-.15.1-.29.21-.44.31-.17.13-.34.25-.51.37-.24.17-.48.34-.72.51-4.37,3.13-8.59,6.15-12.7,8.76-.08.06-.16.11-.24.16-.89.57-1.77,1.11-2.65,1.63-.12.08-.25.16-.37.23-.14.08-.29.17-.43.25-.08.05-.15.09-.23.14-1.54.9-3.07,1.73-4.58,2.47-5.51,2.72-10.28,4.05-14.64,4.05-1.74,0-3.4-.21-5.03-.63-.07-.02-.13-.03-.2-.05-.24-.07-.48-.13-.72-.2-.49-.14-.97-.29-1.44-.44-.09-.03-.18-.06-.26-.09-.17-.05-.33-.1-.49-.16-.52-.18-1.03-.36-1.54-.56-8.72-3.36-15.58-9.16-22.4-15.57-.12-.11-.23-.22-.35-.32-.37-.36-.75-.71-1.12-1.07-.1-.09-.2-.19-.3-.29-.65-.61-1.31-1.24-1.96-1.86-3.3-3.16-6.64-6.35-10.24-9.43-.09-.08-.18-.15-.27-.23-4.61-3.93-9.65-7.65-15.58-10.86-.08-.04-.16-.08-.24-.13-2.95-1.58-6.11-3.03-9.55-4.31-3.5-1.31-7.09-2.02-10.73-2.25-.67-.05-1.35-.07-2.03-.08-11.49-.19-23.29,4.25-33.84,10.17-.73.41-1.45.83-2.16,1.25-2.9,1.7-5.7,3.51-8.35,5.34-.28.2-.55.39-.82.58-.72.5-1.42,1.01-2.12,1.51-.43.31-.85.62-1.27.93-1.46,1.09-2.86,2.17-4.21,3.23-.8.64-1.59,1.27-2.35,1.9-.04-.03-.07-.07-.1-.11.72-.6,1.51-1.24,2.37-1.92,1.27-1.01,2.68-2.11,4.22-3.25.43-.32.87-.64,1.32-.97.66-.48,1.35-.97,2.05-1.46.27-.19.54-.38.82-.57,2.55-1.76,5.33-3.56,8.3-5.3.72-.43,1.45-.85,2.2-1.26.78-.44,1.58-.88,2.38-1.3,7.59-4.01,14.89-6.7,21.69-7.99,3.41-.65,6.71-.95,9.89-.9.68,0,1.35.03,2.01.09,3.79.22,7.39.97,10.77,2.24,3.44,1.28,6.6,2.73,9.54,4.3.08.04.16.09.24.13,10.71,5.78,18.53,13.26,26.15,20.55.69.66,1.38,1.32,2.07,1.98.1.1.2.19.3.28.3.28.59.56.88.84.12.11.23.21.34.32,6.86,6.45,13.75,12.29,22.5,15.66.5.2,1.01.39,1.53.56.16.06.33.11.49.17.09.03.17.06.26.08.32.11.64.21.96.3.31.09.63.19.95.27.08.02.17.05.25.07,5.73,1.53,12.01.47,19.77-3.36,1.5-.74,3.02-1.56,4.56-2.46.08-.04.16-.09.24-.14.1-.06.2-.11.3-.17.12-.07.24-.15.36-.21.9-.55,1.81-1.11,2.73-1.69.09-.05.17-.11.26-.17,4.12-2.63,8.37-5.65,12.75-8.8.14-.1.27-.19.41-.29.1-.07.19-.14.29-.21.31-.22.62-.44.93-.67.07-.04.14-.1.22-.15.6-.43,1.2-.86,1.8-1.29.08-.05.15-.1.22-.15,4.59-3.27,9.34-6.58,14.25-9.6.08-.05.16-.1.23-.14.93-.58,1.86-1.14,2.8-1.68.58-.34,1.16-.67,1.74-1,.21-.12.43-.24.65-.36.08-.04.16-.09.24-.13,7.32-4.02,14.99-7.2,22.99-8.53.09-.02.18-.03.27-.04.02-.01.04-.02.06-.01.1-.02.2-.04.3-.05,2.47-.39,4.96-.59,7.49-.59.44,0,.89,0,1.33.01Z"/>
        <path class="cls-52" d="m241.87,34.26v.13c-.9-.05-1.79-.07-2.66-.07-2.87,0-5.68.23-8.43.67-.1,0-.21.02-.31.05-.1.01-.21.02-.31.05-.09,0-.17.02-.26.04-1.5.25-2.99.57-4.46.94-.28.07-.57.14-.85.23-6.08,1.61-11.88,4.12-17.43,7.11-.08.05-.16.1-.24.13-1.76.97-3.5,1.97-5.21,3.01-.08.05-.16.1-.23.15-5.65,3.44-11.04,7.28-16.22,11.05-.07.05-.14.1-.21.15-.79.57-1.58,1.15-2.36,1.72-5.6,4.08-10.93,7.96-16.04,11.06-.08.05-.16.09-.24.14-6.76,4.07-13.15,6.77-19.37,6.77-1.5,0-2.99-.15-4.48-.49-.29-.07-.57-.14-.86-.22-.28-.07-.55-.15-.82-.24-1.6-.45-3.12-.99-4.59-1.58-.08-.03-.17-.07-.25-.1-.15-.06-.3-.13-.46-.2-.51-.21-1.02-.44-1.53-.67-8.2-3.81-14.58-9.55-21.05-15.69-.12-.1-.23-.21-.34-.32-.51-.48-1.03-.97-1.54-1.46-2.36-2.26-4.75-4.54-7.25-6.77-.26-.24-.52-.47-.78-.69-.83-.74-1.68-1.47-2.54-2.2-.08-.07-.16-.14-.25-.21-.66-.55-1.34-1.1-2.03-1.65-.08-.07-.16-.13-.24-.19-4.62-3.67-9.8-7.14-16-10.15l-.24-.12c-1.76-.85-3.6-1.66-5.54-2.43-3.83-1.53-7.93-2.35-12.3-2.45-.77-.03-1.55-.02-2.34,0-5.19.15-10.73,1.28-16.6,3.37-.19.05-.38.12-.57.2-.96.34-1.93.72-2.92,1.12-.08.03-.16.07-.25.1-3.47,1.44-7.06,3.19-10.75,5.27-.54.3-1.09.62-1.64.94-.43.25-.87.5-1.3.77-2.74,1.63-5.5,3.43-8.27,5.38-.31.21-.61.42-.92.65-1.91,1.36-3.82,2.79-5.74,4.28-.78.62-1.57,1.24-2.35,1.88-.05,0-.09-.03-.14-.05.78-.63,1.56-1.26,2.34-1.86,1.94-1.53,3.88-2.98,5.82-4.36.3-.22.6-.43.91-.64,2.79-1.96,5.57-3.77,8.33-5.43.44-.26.87-.52,1.3-.77.54-.31,1.07-.61,1.6-.91,3.66-2.06,7.25-3.81,10.74-5.24.09-.04.17-.07.25-.1.9-.38,1.78-.72,2.66-1.04.21-.08.42-.15.62-.23h.01c2.85-1.02,5.62-1.81,8.31-2.38,2.89-.62,5.7-.97,8.41-1.06.8-.03,1.59-.04,2.37,0,4.45.08,8.61.9,12.47,2.43,1.93.77,3.76,1.58,5.52,2.43.08.03.16.07.24.12,6.21,3,11.39,6.47,16.01,10.14l.24.18c.68.55,1.35,1.09,2,1.63.09.08.17.14.25.22.69.57,1.36,1.15,2.03,1.73.39.35.78.69,1.17,1.04,2.58,2.3,5.03,4.63,7.46,6.95.47.44.93.89,1.39,1.32.12.11.23.22.34.33,6.5,6.18,12.91,11.96,21.15,15.78.5.24,1.01.47,1.52.68.15.07.31.13.46.19.08.04.17.08.25.11,1.44.58,2.94,1.11,4.51,1.56.29.09.59.18.89.26.31.08.62.16.93.23,7.55,1.67,15.33-1.25,23.67-6.27.08-.04.16-.09.24-.14,5.11-3.1,10.43-6.98,16.04-11.06.77-.57,1.55-1.13,2.34-1.71.07-.05.14-.1.21-.15,5.18-3.76,10.58-7.6,16.23-11.05.08-.05.15-.1.23-.14,1.71-1.05,3.45-2.05,5.21-3.01.08-.04.16-.09.24-.13,5.47-2.96,11.18-5.44,17.16-7.07.49-.13.99-.26,1.48-.38,1.38-.34,2.77-.63,4.18-.87.08-.02.17-.03.26-.04.07-.02.15-.03.22-.04.1-.02.2-.04.3-.05,2.78-.44,5.63-.68,8.53-.68.89,0,1.77.02,2.67.07Z"/>
        <path class="cls-78" d="m247.18,37.48v.13c-4.69-.32-9.18-.08-13.5.61-.11,0-.21.03-.31.05-8.71,1.42-16.73,4.65-24.23,8.73-.44.25-.88.49-1.32.74-8.38,4.71-16.11,10.46-23.44,15.9-5.25,3.9-10.25,7.62-15.08,10.63-.01.01-.02.02-.03.02-.08.05-.15.1-.23.14-.94.59-1.88,1.15-2.81,1.68-5.77,3.26-11.3,5.36-16.74,5.36-1.82,0-3.63-.24-5.43-.74-3.12-.86-5.96-1.95-8.59-3.21-.08-.03-.15-.07-.23-.11-.15-.07-.3-.14-.45-.22-.51-.25-1.01-.51-1.51-.78-7.66-4.13-13.59-9.77-19.76-15.63-4.1-3.89-8.45-8.05-13.65-12.04-.07-.06-.14-.12-.21-.16-.06-.06-.13-.11-.2-.16-.57-.43-1.15-.87-1.74-1.3-.23-.16-.46-.33-.69-.5-.01,0-.03,0-.04-.02-.07-.05-.14-.1-.21-.15-.63-.45-1.28-.9-1.94-1.34-3.31-2.22-6.95-4.36-11.03-6.33-.1-.05-.19-.09-.29-.14h0c-.7-.34-1.41-.67-2.13-.99-.08-.04-.16-.07-.25-.11-.49-.22-.99-.44-1.5-.65-10.84-4.6-23.08-2.53-34.65,2.32-.08.03-.16.07-.25.11-7.83,3.32-15.35,7.91-21.91,12.57-.32.23-.64.46-.96.69-.02-.04-.05-.09-.08-.13.31-.24.63-.46.95-.69,3.08-2.19,6.17-4.21,9.23-6.04,4.35-2.61,8.59-4.78,12.69-6.52.08-.04.17-.07.25-.1,3.7-1.56,7.29-2.75,10.73-3.57,9-2.13,17.09-1.72,24.06,1.23.5.21.99.42,1.47.65.09.03.17.06.25.11.77.34,1.53.69,2.27,1.05.09.04.18.08.28.13,4.05,1.96,7.66,4.08,10.95,6.3.68.46,1.35.92,2,1.39.05.03.11.07.16.11.02.02.05.03.08.06.24.17.49.35.73.53.54.38,1.06.77,1.57,1.16.1.08.2.15.29.23.07.05.14.11.21.16,5.2,4,9.57,8.15,13.66,12.04,6.15,5.85,12.07,11.48,19.71,15.61.5.26,1,.52,1.51.78.15.07.3.15.45.22.08.04.16.08.24.11,2.63,1.27,5.46,2.35,8.58,3.21,7.2,1.99,14.49-.29,22.19-4.68h0c.89-.51,1.78-1.04,2.68-1.6.06-.04.13-.08.19-.12,0,0,.02-.01.04-.02,4.83-3.02,9.84-6.74,15.1-10.65,7.3-5.42,15.01-11.15,23.36-15.86.53-.3,1.06-.59,1.59-.88,5.8-3.15,11.91-5.78,18.4-7.46.1-.02.19-.05.28-.07,1.75-.45,3.53-.82,5.34-1.12.1-.02.2-.03.3-.05,4.36-.7,8.89-.94,13.61-.62Z"/>
        <path class="cls-73" d="m252.49,40.7v.13c-27.84-2.33-48.27,13.14-66.31,26.78-12.43,9.41-23.41,17.73-34.24,17.73-1.84,0-3.68-.24-5.52-.76-1.98-.56-3.84-1.18-5.59-1.87-.68-.26-1.34-.53-1.98-.82-9.43-4.14-15.78-10.17-22.92-16.94-8.09-7.67-17.25-16.36-32.91-23.38-.79-.36-1.6-.67-2.41-.96-.02,0-.03,0-.05-.01-10.17-3.49-21.56-1.16-32.01,3.28-1.32.57-2.64,1.17-3.93,1.79-4.71,2.28-9.16,4.91-13.13,7.52-1.89,1.25-3.73,2.52-5.5,3.81-.34.24-.68.48-1.01.73-.89.65-1.76,1.3-2.6,1.95-1.21.93-2.37,1.84-3.49,2.75-.16.12-.32.25-.48.38-.01,0-.01.01-.02.02-.04-.03-.07-.07-.09-.11t.02-.02c.16-.13.32-.26.49-.39,1.12-.9,2.29-1.82,3.5-2.74.85-.66,1.73-1.32,2.63-1.97.33-.25.66-.49,1-.73,1.76-1.28,3.59-2.55,5.48-3.79,4.54-2.98,8.95-5.52,13.21-7.58,1.3-.63,2.59-1.22,3.86-1.76,2.95-1.26,5.81-2.28,8.58-3.07,8.75-2.47,16.61-2.55,23.41-.24.01,0,.02.01.03.01.06.02.13.05.2.07.01,0,.02,0,.03,0,.79.28,1.57.59,2.33.93,5.32,2.39,9.9,4.97,13.93,7.63.3.2.6.4.9.61,7.4,5,12.98,10.29,18.12,15.17,7.11,6.75,13.45,12.76,22.85,16.89.66.29,1.33.57,2.03.83,1.74.69,3.59,1.32,5.56,1.87,12.59,3.54,25.13-5.95,39.64-16.94,8.67-6.56,18.48-13.99,29.38-19.31,12.48-6.09,24.58-8.55,37.01-7.5Z"/>
      </g>
    </g>
  </g>
</svg>