<svg width="512" height="512" viewBox="0 0 512 512" fill="none" xmlns="http://www.w3.org/2000/svg">
<path d="M476.922 178.907C477.269 177.26 477.447 175.582 477.452 173.899C477.452 149.538 441.647 130.455 395.939 130.455C350.231 130.455 314.426 149.538 314.426 173.899C314.442 177.287 315.138 180.637 316.472 183.75L301.343 232.237C301.799 209.259 300.989 186.273 298.916 163.383C299.247 149.219 288.161 134.27 267.194 120.842C245.467 106.928 215.308 95.9132 182.271 89.8282C149.234 83.7432 117.124 83.2872 91.8593 88.5462C69.5003 93.2002 54.4543 102.007 48.4463 113.729H48.4403C37.0262 135.42 27.8328 158.208 21.0003 181.747C6.12334 233.301 7.70634 274.537 25.7003 304.311C32.6405 315.91 40.8683 326.687 50.2273 336.439C46.6063 341.249 41.3033 350.276 41.4183 361.798C41.5363 373.661 47.2783 384.98 58.4833 395.44C78.5133 414.14 120.076 427.065 157.5 427.064C161.747 427.064 165.942 426.898 170.046 426.555C199.519 424.087 222.491 413.113 236.475 394.822C248.444 379.165 251.753 363.906 246.354 349.398C270.597 331.186 288.055 305.393 295.954 276.119L306.524 313.854C289.316 325.589 284.396 339.8 283.306 349.674C281.784 363.474 286.842 377.674 297.181 388.641C319.596 412.405 352.811 425.083 395.904 426.322C398.654 426.401 401.36 426.441 404.022 426.44C416.049 426.53 428.061 425.574 439.922 423.583C464.739 419.191 483.643 405.416 490.49 386.734C496.315 370.842 492.59 353.322 480.029 337.154L499.843 268.035C501.448 262.452 501.373 256.52 499.626 250.98L476.922 178.907ZM395.939 140.455C434.703 140.455 467.452 155.771 467.452 173.899C467.452 192.027 434.703 207.345 395.939 207.345C357.175 207.345 324.426 192.028 324.426 173.899C324.426 155.77 357.175 140.455 395.939 140.455ZM447.2 267.3C447.366 268.495 447.958 269.59 448.867 270.383C449.777 271.176 450.942 271.613 452.148 271.614C452.38 271.614 452.611 271.598 452.84 271.566L454.783 271.297L442.183 360.434C436.437 362.754 430.495 364.557 424.428 365.82C421.301 366.482 418.15 367.026 414.982 367.45L424.829 274.769L428.821 274.291C429.473 274.213 430.104 274.008 430.676 273.686C431.249 273.365 431.752 272.933 432.158 272.417C432.564 271.901 432.865 271.31 433.042 270.678C433.22 270.046 433.271 269.385 433.193 268.733C433.115 268.081 432.909 267.45 432.588 266.878C432.266 266.305 431.835 265.802 431.319 265.396C430.803 264.99 430.212 264.689 429.58 264.512C428.947 264.334 428.286 264.283 427.634 264.361L423.959 264.801L416.389 216.019C425.156 214.902 433.778 212.855 442.111 209.913L454.5 261.239L451.464 261.66C450.151 261.843 448.964 262.54 448.164 263.597C447.365 264.655 447.018 265.987 447.2 267.3ZM383.621 266.318L380.873 265.99L388.45 217.162C390.916 217.277 393.411 217.345 395.942 217.345C399.502 217.345 402.992 217.216 406.419 216.991L414.019 265.991L411.271 266.319C410.004 266.468 408.841 267.095 408.021 268.073C407.202 269.051 406.787 270.306 406.862 271.58C406.937 272.854 407.497 274.051 408.426 274.925C409.355 275.8 410.583 276.287 411.859 276.285C412.06 276.285 412.26 276.273 412.459 276.249L414.638 275.988L404.813 368.46C399.913 368.769 394.973 368.834 390.095 368.652L380.25 275.988L382.43 276.249C382.629 276.273 382.83 276.285 383.03 276.285C384.306 276.287 385.535 275.8 386.464 274.925C387.393 274.051 387.952 272.854 388.028 271.58C388.103 270.306 387.688 269.051 386.868 268.073C386.048 267.095 384.886 266.468 383.618 266.319L383.621 266.318ZM343.43 261.66L340.392 261.239L352.557 210.866C360.979 213.584 369.658 215.43 378.457 216.374L370.935 264.8L367.261 264.36C365.945 264.203 364.619 264.575 363.577 265.394C362.534 266.214 361.86 267.414 361.702 268.731C361.545 270.048 361.917 271.373 362.737 272.416C363.556 273.458 364.757 274.133 366.073 274.29L370.065 274.768L379.965 367.902C372.916 367.171 365.952 365.775 359.165 363.734C357.003 363.059 354.888 362.241 352.834 361.284L340.11 271.3L342.054 271.569C342.284 271.601 342.515 271.617 342.746 271.617C344.014 271.618 345.235 271.138 346.162 270.273C347.089 269.408 347.652 268.223 347.739 266.958C347.826 265.694 347.428 264.443 346.628 263.46C345.827 262.477 344.683 261.835 343.427 261.663L343.43 261.66ZM34.2653 299.137C4.39834 249.737 32.2573 172.808 48.0353 137.469C50.7083 143.79 55.4833 150.135 62.2423 156.31C58.5153 163.436 50.5273 180.519 44.9793 205.279C36.9276 242.003 37.3613 280.08 46.2473 316.611C41.9147 311.026 37.9138 305.191 34.2653 299.137ZM54.6443 207.886C58.0072 192.293 63.2212 177.157 70.1753 162.8C72.3953 164.443 74.7547 166.068 77.2533 167.674C88.9109 174.953 101.306 180.978 114.232 185.647C100.612 198.677 70.9243 234.907 55.7533 313.339C47.4719 278.717 47.0929 242.675 54.6443 207.886ZM121.384 365.671C109.284 363.488 85.8983 356.52 62.3183 334.339C70.9883 276.049 87.9183 239.467 100.688 218.972C105.157 211.709 110.239 204.841 115.877 198.443C113.024 213.886 111.01 229.473 109.845 245.134C107.474 276.778 107.714 322.613 121.384 365.671ZM198.719 362.038C177.754 368.279 155.716 370.067 134.019 367.287C139.434 305.454 168.731 247.011 185.111 218.551C179.131 295.526 189.964 339.874 198.719 362.038ZM196.557 203.009C202.416 203.397 208.18 203.609 213.795 203.609C225.031 203.669 236.252 202.781 247.339 200.956C236.331 223.091 210.125 280.688 202.439 341.347C195.279 314.853 189.545 270.981 196.557 203.009ZM126.505 346.782C110.516 280.142 123.556 209.616 127.757 190.245C139.054 193.736 150.547 196.555 162.176 198.687C169.214 199.982 176.295 201.03 183.405 201.83C171.01 221.541 137.3 279.873 126.505 346.782ZM228.537 388.748C213.095 408.948 187.755 415.037 169.217 416.59C136.826 419.301 87.8783 409.19 65.3173 388.13C56.2273 379.645 51.5543 370.787 51.4293 361.804C51.3173 353.863 54.8163 347.314 57.4973 343.473C68.2129 353.332 80.4333 361.418 93.6973 367.425C112.233 375.675 126.366 376.561 129.29 376.654C137.462 378.088 145.747 378.772 154.043 378.698C175.248 378.698 206.921 374.615 237.743 355.27C240.7 365.79 237.672 376.8 228.537 388.748ZM234.656 345.379C227.152 350.285 219.183 354.438 210.863 357.779C215.088 297.679 241.531 236.241 254.215 209.779C251.345 243.479 248.915 300.664 258.158 325.194C251.224 332.904 243.325 339.688 234.656 345.379ZM163.986 188.853C132.194 182.996 103.307 172.484 82.6463 159.253C63.5583 147.028 53.7693 133.747 55.7873 122.814C58.7293 106.882 87.4243 94.8342 130.357 94.8342C147.169 94.9275 163.938 96.5441 180.457 99.6642C212.249 105.521 241.137 116.032 261.798 129.264C280.886 141.488 290.676 154.77 288.657 165.702C284.683 187.238 233.639 201.683 163.986 188.853ZM290.579 248.486C288.885 272.88 280.267 296.284 265.737 315.951C258.705 287.9 262.228 226.363 265.537 196.542C276.301 193.006 284.668 188.253 290.337 182.497C291.345 199.1 292.253 224.517 290.579 248.486ZM305.221 272.093C303.019 264.196 303.575 255.785 306.796 248.246C306.863 248.089 306.922 247.929 306.974 247.766L323.662 194.282C328.533 199.273 335.162 203.664 343.143 207.239L330.436 259.86L326.578 259.325C325.265 259.143 323.933 259.49 322.875 260.29C321.817 261.091 321.121 262.278 320.939 263.592C320.757 264.905 321.104 266.237 321.904 267.295C322.704 268.353 323.892 269.049 325.205 269.231L329.805 269.869L341.751 354.369C326.716 342.229 320.006 324.177 317.981 317.649L317.971 317.621L305.221 272.093ZM481.111 383.293C475.588 398.363 459.142 410.028 438.189 413.735C424.316 416.006 410.249 416.874 396.201 416.326C355.858 415.166 324.994 403.543 304.467 381.779C296.142 372.953 292.056 361.65 293.256 350.771C294.388 340.517 300.006 331.316 309.564 323.993C314.023 336.468 326.997 364.237 356.205 373.293C376.955 379.722 403.239 380.584 426.517 375.604C449.322 370.722 466.255 360.885 475.19 347.524C483.229 359.656 485.283 371.908 481.111 383.293ZM490.239 265.279L469.8 336.6C466.764 343.7 461.051 349.877 453.067 354.892L465.086 269.87L469.686 269.231C471 269.049 472.187 268.353 472.988 267.295C473.788 266.237 474.135 264.905 473.953 263.592C473.771 262.278 473.074 261.091 472.017 260.29C470.959 259.49 469.627 259.143 468.313 259.325L464.455 259.86L451.443 205.973C459.496 202.023 465.995 197.197 470.487 191.753L490.1 253.982C491.256 257.652 491.304 261.582 490.239 265.279Z" fill="white"/>
<path d="M395.367 184.354C415.036 184.354 434.948 177.867 434.948 165.469C434.948 153.071 415.036 146.584 395.367 146.584C375.698 146.584 355.785 153.07 355.785 165.469C355.785 177.868 375.701 184.354 395.367 184.354ZM395.367 156.584C414.582 156.584 424.948 162.891 424.948 165.469C424.948 168.047 414.582 174.354 395.367 174.354C376.152 174.354 365.785 168.047 365.785 165.469C365.785 162.891 376.151 156.584 395.367 156.584ZM209.39 131.826C201.574 126.499 190.75 122.364 178.911 120.184C152.27 115.277 130.327 121.632 127.865 134.965C126.572 141.965 130.812 149.196 139.801 155.324C147.617 160.651 158.44 164.786 170.278 166.966C175.982 168.039 181.773 168.591 187.578 168.617C205.905 168.617 219.429 162.481 221.33 152.185C222.617 145.184 218.379 137.953 209.39 131.826ZM211.49 150.368C210.47 155.897 194.612 161.28 172.09 157.132C161.59 155.198 152.124 151.621 145.434 147.061C140.156 143.461 137.192 139.524 137.699 136.781C138.467 132.623 147.627 128.547 161.705 128.547C166.87 128.57 172.023 129.062 177.1 130.018C187.6 131.952 197.066 135.528 203.757 140.089C209.034 143.686 212.001 147.625 211.491 150.368H211.49Z" fill="white"/>
</svg>
