<svg width="512" height="512" viewBox="0 0 512 512" fill="none" xmlns="http://www.w3.org/2000/svg">
<path d="M255.247 504.47C268.047 504.47 278.588 493.929 278.588 481.882V406.588C292.894 399.812 303.435 386.259 305.694 369.694H311.718C349.365 369.694 380.235 338.823 380.235 301.176V75.294C380.235 37.647 349.365 6.77637 311.718 6.77637H201.035C163.388 6.77637 132.518 37.647 132.518 75.294V301.176C132.518 338.823 163.388 369.694 201.035 369.694H205.553C207.812 386.259 218.353 399.812 232.659 406.588V481.882C231.906 493.929 242.447 504.47 255.247 504.47ZM147.576 301.176V288.376H227.388C231.906 288.376 234.918 285.365 234.918 280.847C234.918 276.329 231.906 273.318 227.388 273.318H147.576V244.706H227.388C231.906 244.706 234.918 241.694 234.918 237.176C234.918 232.659 231.906 229.647 227.388 229.647H147.576V201.035H227.388C231.906 201.035 234.918 198.023 234.918 193.506C234.918 188.988 231.906 185.976 227.388 185.976H147.576V158.118H227.388C231.906 158.118 234.918 155.106 234.918 150.588C234.918 146.07 231.906 143.059 227.388 143.059H147.576V114.447H227.388C231.906 114.447 234.918 111.435 234.918 106.918C234.918 102.4 231.906 99.3881 227.388 99.3881H147.576V76.047C147.576 46.6823 171.671 22.5881 201.035 22.5881H204.8V59.4822C204.8 63.9999 207.812 67.0117 212.329 67.0117C216.847 67.0117 219.859 63.9999 219.859 59.4822V22.5881H248.471V59.4822C248.471 63.9999 251.482 67.0117 256 67.0117C260.518 67.0117 263.529 63.9999 263.529 59.4822V22.5881H292.894V59.4822C292.894 63.9999 295.906 67.0117 300.423 67.0117C304.941 67.0117 307.953 63.9999 307.953 59.4822V22.5881H311.718C341.082 22.5881 365.176 46.6823 365.176 76.047V99.3881H284.612C280.094 99.3881 277.082 102.4 277.082 106.918C277.082 111.435 280.094 114.447 284.612 114.447H364.423V143.059H284.612C280.094 143.059 277.082 146.07 277.082 150.588C277.082 155.106 280.094 158.118 284.612 158.118H364.423V186.729H284.612C280.094 186.729 277.082 189.741 277.082 194.259C277.082 198.776 280.094 201.788 284.612 201.788H364.423V230.4H284.612C280.094 230.4 277.082 233.412 277.082 237.929C277.082 242.447 280.094 245.459 284.612 245.459H364.423V274.07H284.612C280.094 274.07 277.082 277.082 277.082 281.6C277.082 286.118 280.094 289.129 284.612 289.129H364.423V301.176C364.423 330.541 340.329 354.635 310.965 354.635H307.2V317.741C307.2 313.223 304.188 310.212 299.671 310.212C295.153 310.212 292.141 313.223 292.141 317.741V354.635H263.529V317.741C263.529 313.223 260.518 310.212 256 310.212C251.482 310.212 248.471 313.223 248.471 317.741V354.635H219.106V317.741C219.106 313.223 216.094 310.212 211.576 310.212C207.059 310.212 204.047 313.223 204.047 317.741V354.635H200.282C171.671 354.635 147.576 330.541 147.576 301.176ZM220.612 369.694H289.882C283.106 399.059 254.494 396.047 253.741 396.8C237.176 396.8 223.623 385.506 220.612 369.694ZM256.753 411.859H263.529V481.882C263.529 486.4 259.765 489.412 256 489.412C251.482 489.412 248.471 485.647 248.471 481.882V411.859H255.247H256.753Z" fill="white"/>
</svg>
